<svg xmlns="http://www.w3.org/2000/svg" version="1.1" xmlns:xlink="http://www.w3.org/1999/xlink" xmlns:svgjs="http://svgjs.dev/svgjs" width="1000" height="623" viewBox="0 0 1000 623"><g transform="matrix(1,0,0,1,-0.6060606060606233,0.2522267206477409)"><svg viewBox="0 0 396 247" data-background-color="#ed2647" preserveAspectRatio="xMidYMid meet" height="623" width="1000" xmlns="http://www.w3.org/2000/svg" xmlns:xlink="http://www.w3.org/1999/xlink"><g id="tight-bounds" transform="matrix(1,0,0,1,0.2400000000000091,-0.09999999999999432)"><svg viewBox="0 0 395.52 247.2" height="247.2" width="395.52"><g><svg></svg></g><g><svg viewBox="0 0 395.52 247.2" height="247.2" width="395.52"><mask id="7c8187ab-71f7-4c78-8222-4697e6ef3700"><rect width="640" height="400" fill="white"></rect><g transform="matrix(1,0,0,1,39.55199999999999,106.5132780872164)"><svg viewBox="0 0 316.416 34.17344382556718" height="34.17344382556718" width="316.416"><g><svg viewBox="0 0 316.416 34.17344382556718" height="34.17344382556718" width="316.416"><g><svg viewBox="0 0 316.416 34.17344382556718" height="34.17344382556718" width="316.416"><g><svg viewBox="0 0 316.416 34.17344382556718" height="34.17344382556718" width="316.416"><g id="SvgjsG1506"><svg viewBox="0 0 316.416 34.17344382556718" height="34.17344382556718" width="316.416" id="SvgjsSvg1505"><g><svg viewBox="0 0 316.416 34.17344382556718" height="34.17344382556718" width="316.416"><g transform="matrix(1,0,0,1,0,0)"><svg width="316.416" viewBox="-3.25 -36.29999923706055 369.010009765625 40.75" height="34.17344382556718" data-palette-color="#ffffff"><path d="M14.65-11.6L14.6-9.35 14.7 0 10.75 0 10.95-9.35 10.9-11.45 0.75-32.05 5.05-32.05 5.7-30.25 12.7-15.85 13.05-15.85 20.75-30.15 21.5-32.05 25.7-32.05 14.65-11.6ZM39.15-24.9L47.9 0 44.15 0 43.55-2.7 42.25-6.4 36.3-6.45 31-6.4 29.65-2.9 28.95 0 25.25 0 34.85-24.9 39.15-24.9ZM36.6-9.4L41.2-9.45 37.05-21.25 36.75-21.25 32.2-9.45 36.6-9.4ZM66.89-24.9L67.09-24.6 66.84-21.45 62.2-21.8 59.7-21.8 59.55-7.8 59.7 0 55.95 0 56.09-7.5 55.99-21.8 53.49-21.8 48.74-21.45 48.45-21.8 48.74-24.9 66.89-24.9ZM79.74-25.15Q82.79-25.15 85.84-23.95L85.84-23.95 85.19-20.25 84.59-20.1Q83.19-21.2 81.94-21.73 80.69-22.25 79.34-22.25L79.34-22.25Q77.19-22.25 75.94-21.13 74.69-20 74.69-18.55L74.69-18.55Q74.69-17.1 75.92-16.2 77.14-15.3 79.69-14.2L79.69-14.2Q81.94-13.2 83.27-12.4 84.59-11.6 85.57-10.28 86.54-8.95 86.54-7.05L86.54-7.05Q86.54-5.1 85.49-3.43 84.44-1.75 82.42-0.73 80.39 0.3 77.59 0.3L77.59 0.3Q75.84 0.3 73.92-0.13 71.99-0.55 70.34-1.4L70.34-1.4 70.79-5.35 71.29-5.55Q72.69-4.15 74.57-3.38 76.44-2.6 78.04-2.6L78.04-2.6Q80.14-2.6 81.49-3.73 82.84-4.85 82.84-6.45L82.84-6.45Q82.84-7.95 81.62-8.85 80.39-9.75 77.79-10.95L77.79-10.95Q75.64-11.9 74.27-12.7 72.89-13.5 71.94-14.83 70.99-16.15 70.99-18.05L70.99-18.05Q70.99-20.05 72.07-21.65 73.14-23.25 75.12-24.2 77.09-25.15 79.74-25.15L79.74-25.15ZM112.94-24.9L112.79-12.25 112.79-8.65Q112.84-4.4 110.22-2.05 107.59 0.3 102.69 0.3L102.69 0.3Q97.84 0.3 95.29-2.02 92.74-4.35 92.84-8.65L92.84-8.65 92.89-12.45 92.84-24.9 96.59-24.9 96.39-9.25Q96.34-6.1 97.97-4.5 99.59-2.9 102.84-2.9L102.84-2.9Q106.04-2.9 107.69-4.5 109.34-6.1 109.29-9.25L109.29-9.25 109.14-24.9 112.94-24.9ZM139.79-24.95L129.19-13.25Q134.49-6.75 140.44-0.85L140.44-0.85 140.34-0.3Q138.79 0.2 136.74 0.45L136.74 0.45 136.14 0.2Q129.74-7 125.09-13L125.09-13 125.09-13.3 133.69-22.7 135.34-24.9 139.79-24.95ZM124.84-24.9L124.69-7.8 124.79 0 121.09 0 121.24-7.5 121.09-24.9 124.84-24.9ZM154.14-3L160.79-3.2 161.09-2.9 160.74 0 145.59 0 145.74-7.5 145.59-24.9 160.84-24.9 161.09-24.6 160.79-21.7 154.49-21.9 149.28-21.85 149.24-14.3 154.19-14.25 158.53-14.4 158.78-14.05 158.49-11.1 153.89-11.25 149.24-11.2 149.19-7.8 149.24-3.05 154.14-3ZM188.13-25L187.98-7.45 188.03 0 184.03 0 170.93-19 170.68-19 170.63-8.3 170.73 0 167.33 0 167.48-7.35 167.38-24.9 171.33-24.9 184.43-5.9 184.78-5.9 184.68-24.75 188.13-25ZM218.38-32.3Q223.43-32.3 227.78-30.05L227.78-30.05 226.98-26.25 226.48-26.15Q224.08-27.65 222.05-28.3 220.03-28.95 217.78-28.95L217.78-28.95Q206.93-28.95 206.93-15.55L206.93-15.55Q206.93-9.1 209.45-6.08 211.98-3.05 217.28-3.05L217.28-3.05Q218.68-3.05 220.1-3.3 221.53-3.55 223.78-4.25L223.78-4.25 223.88-8 223.83-12.8 227.58-13.1 227.48-8.55 227.68-1.55Q224.43-0.55 221.93-0.1 219.43 0.35 217.08 0.35L217.08 0.35Q209.93 0.35 206.35-3.7 202.78-7.75 202.78-15.4L202.78-15.4Q202.78-23.65 206.83-27.98 210.88-32.3 218.38-32.3L218.38-32.3ZM246.08-24.9L254.83 0 251.08 0 250.48-2.7 249.18-6.4 243.23-6.45 237.93-6.4 236.58-2.9 235.88 0 232.18 0 241.78-24.9 246.08-24.9ZM243.53-9.4L248.13-9.45 243.98-21.25 243.68-21.25 239.13-9.45 243.53-9.4ZM274.22-3.15L274.42-2.8 274.17 0 260.92 0 261.07-7.5 260.92-24.9 264.67-24.9 264.52-7.8 264.62-3.15 274.22-3.15ZM293.07-3.15L293.27-2.8 293.02 0 279.77 0 279.92-7.5 279.77-24.9 283.52-24.9 283.37-7.8 283.47-3.15 293.07-3.15ZM307.27-3L313.92-3.2 314.22-2.9 313.87 0 298.72 0 298.87-7.5 298.72-24.9 313.97-24.9 314.22-24.6 313.92-21.7 307.62-21.9 302.42-21.85 302.37-14.3 307.32-14.25 311.67-14.4 311.92-14.05 311.62-11.1 307.02-11.25 302.37-11.2 302.32-7.8 302.37-3.05 307.27-3ZM331.92-10.05Q334.97-5.4 338.67-0.9L338.67-0.9 338.62-0.4Q336.52 0.25 335.17 0.35L335.17 0.35 334.52-0.05Q330.72-5.8 328.77-9.1L328.77-9.1 324.07-9.05 324.07-7.8 324.17 0 320.47 0 320.62-7.5 320.47-24.9 328.97-24.95Q332.92-24.95 335.04-23.1 337.17-21.25 337.17-17.75L337.17-17.75Q337.17-15.2 335.79-13.2 334.42-11.2 331.92-10.05L331.92-10.05ZM324.17-21.9L324.12-12.15 328.82-12Q333.27-13.25 333.27-17.45L333.27-17.45Q333.27-19.65 331.97-20.75 330.67-21.85 328.02-21.95L328.02-21.95 324.17-21.9ZM352.51-8.7L352.46-7.15 352.61 0 348.86 0 349.06-7.15 349.01-8.7 340.56-24.9 344.66-24.9 345.16-23.45 350.76-12.75 351.01-12.75 357.11-23.3 357.76-24.9 361.76-24.9 352.51-8.7Z" opacity="1" transform="matrix(1,0,0,1,0,0)" fill="black" class="wordmark-text-0" id="SvgjsPath1504" stroke-width="7" stroke="black" stroke-linejoin="round"></path></svg></g></svg></g></svg></g></svg></g></svg></g></svg></g></svg></g></mask><g transform="matrix(1,0,0,1,39.55199999999999,106.5132780872164)"><svg viewBox="0 0 316.416 34.17344382556718" height="34.17344382556718" width="316.416"><g><svg viewBox="0 0 316.416 34.17344382556718" height="34.17344382556718" width="316.416"><g><svg viewBox="0 0 316.416 34.17344382556718" height="34.17344382556718" width="316.416"><g><svg viewBox="0 0 316.416 34.17344382556718" height="34.17344382556718" width="316.416"><g id="textblocktransform"><svg viewBox="0 0 316.416 34.17344382556718" height="34.17344382556718" width="316.416" id="textblock"><g><svg viewBox="0 0 316.416 34.17344382556718" height="34.17344382556718" width="316.416"><g transform="matrix(1,0,0,1,0,0)"><svg width="316.416" viewBox="-3.25 -36.29999923706055 369.010009765625 40.75" height="34.17344382556718" data-palette-color="#ffffff"><path d="M14.65-11.6L14.6-9.35 14.7 0 10.75 0 10.95-9.35 10.9-11.45 0.75-32.05 5.05-32.05 5.7-30.25 12.7-15.85 13.05-15.85 20.75-30.15 21.5-32.05 25.7-32.05 14.65-11.6ZM39.15-24.9L47.9 0 44.15 0 43.55-2.7 42.25-6.4 36.3-6.45 31-6.4 29.65-2.9 28.95 0 25.25 0 34.85-24.9 39.15-24.9ZM36.6-9.4L41.2-9.45 37.05-21.25 36.75-21.25 32.2-9.45 36.6-9.4ZM66.89-24.9L67.09-24.6 66.84-21.45 62.2-21.8 59.7-21.8 59.55-7.8 59.7 0 55.95 0 56.09-7.5 55.99-21.8 53.49-21.8 48.74-21.45 48.45-21.8 48.74-24.9 66.89-24.9ZM79.74-25.15Q82.79-25.15 85.84-23.95L85.84-23.95 85.19-20.25 84.59-20.1Q83.19-21.2 81.94-21.73 80.69-22.25 79.34-22.25L79.34-22.25Q77.19-22.25 75.94-21.13 74.69-20 74.69-18.55L74.69-18.55Q74.69-17.1 75.92-16.2 77.14-15.3 79.69-14.2L79.69-14.2Q81.94-13.2 83.27-12.4 84.59-11.6 85.57-10.28 86.54-8.95 86.54-7.05L86.54-7.05Q86.54-5.1 85.49-3.43 84.44-1.75 82.42-0.73 80.39 0.3 77.59 0.3L77.59 0.3Q75.84 0.3 73.92-0.13 71.99-0.55 70.34-1.4L70.34-1.4 70.79-5.35 71.29-5.55Q72.69-4.15 74.57-3.38 76.44-2.6 78.04-2.6L78.04-2.6Q80.14-2.6 81.49-3.73 82.84-4.85 82.84-6.45L82.84-6.45Q82.84-7.95 81.62-8.85 80.39-9.75 77.79-10.95L77.79-10.95Q75.64-11.9 74.27-12.7 72.89-13.5 71.94-14.83 70.99-16.15 70.99-18.05L70.99-18.05Q70.99-20.05 72.07-21.65 73.14-23.25 75.12-24.2 77.09-25.15 79.74-25.15L79.74-25.15ZM112.94-24.9L112.79-12.25 112.79-8.65Q112.84-4.4 110.22-2.05 107.59 0.3 102.69 0.3L102.69 0.3Q97.84 0.3 95.29-2.02 92.74-4.35 92.84-8.65L92.84-8.65 92.89-12.45 92.84-24.9 96.59-24.9 96.39-9.25Q96.34-6.1 97.97-4.5 99.59-2.9 102.84-2.9L102.84-2.9Q106.04-2.9 107.69-4.5 109.34-6.1 109.29-9.25L109.29-9.25 109.14-24.9 112.94-24.9ZM139.79-24.95L129.19-13.25Q134.49-6.75 140.44-0.85L140.44-0.85 140.34-0.3Q138.79 0.2 136.74 0.45L136.74 0.45 136.14 0.2Q129.74-7 125.09-13L125.09-13 125.09-13.3 133.69-22.7 135.34-24.9 139.79-24.95ZM124.84-24.9L124.69-7.8 124.79 0 121.09 0 121.24-7.5 121.09-24.9 124.84-24.9ZM154.14-3L160.79-3.2 161.09-2.9 160.74 0 145.59 0 145.74-7.5 145.59-24.9 160.84-24.9 161.09-24.6 160.79-21.7 154.49-21.9 149.28-21.85 149.24-14.3 154.19-14.25 158.53-14.4 158.78-14.05 158.49-11.1 153.89-11.25 149.24-11.2 149.19-7.8 149.24-3.05 154.14-3ZM188.13-25L187.98-7.45 188.03 0 184.03 0 170.93-19 170.68-19 170.63-8.3 170.73 0 167.33 0 167.48-7.35 167.38-24.9 171.33-24.9 184.43-5.9 184.78-5.9 184.68-24.75 188.13-25ZM218.38-32.3Q223.43-32.3 227.78-30.05L227.78-30.05 226.98-26.25 226.48-26.15Q224.08-27.65 222.05-28.3 220.03-28.95 217.78-28.95L217.78-28.95Q206.93-28.95 206.93-15.55L206.93-15.55Q206.93-9.1 209.45-6.08 211.98-3.05 217.28-3.05L217.28-3.05Q218.68-3.05 220.1-3.3 221.53-3.55 223.78-4.25L223.78-4.25 223.88-8 223.83-12.8 227.58-13.1 227.48-8.55 227.68-1.55Q224.43-0.55 221.93-0.1 219.43 0.35 217.08 0.35L217.08 0.35Q209.93 0.35 206.35-3.7 202.78-7.75 202.78-15.4L202.78-15.4Q202.78-23.65 206.83-27.98 210.88-32.3 218.38-32.3L218.38-32.3ZM246.08-24.9L254.83 0 251.08 0 250.48-2.7 249.18-6.4 243.23-6.45 237.93-6.4 236.58-2.9 235.88 0 232.18 0 241.78-24.9 246.08-24.9ZM243.53-9.4L248.13-9.45 243.98-21.25 243.68-21.25 239.13-9.45 243.53-9.4ZM274.22-3.15L274.42-2.8 274.17 0 260.92 0 261.07-7.5 260.92-24.9 264.67-24.9 264.52-7.8 264.62-3.15 274.22-3.15ZM293.07-3.15L293.27-2.8 293.02 0 279.77 0 279.92-7.5 279.77-24.9 283.52-24.9 283.37-7.8 283.47-3.15 293.07-3.15ZM307.27-3L313.92-3.2 314.22-2.9 313.87 0 298.72 0 298.87-7.5 298.72-24.9 313.97-24.9 314.22-24.6 313.92-21.7 307.62-21.9 302.42-21.85 302.37-14.3 307.32-14.25 311.67-14.4 311.92-14.05 311.62-11.1 307.02-11.25 302.37-11.2 302.32-7.8 302.37-3.05 307.27-3ZM331.92-10.05Q334.97-5.4 338.67-0.9L338.67-0.9 338.62-0.4Q336.52 0.25 335.17 0.35L335.17 0.35 334.52-0.05Q330.72-5.8 328.77-9.1L328.77-9.1 324.07-9.05 324.07-7.8 324.17 0 320.47 0 320.62-7.5 320.47-24.9 328.97-24.95Q332.92-24.95 335.04-23.1 337.17-21.25 337.17-17.75L337.17-17.75Q337.17-15.2 335.79-13.2 334.42-11.2 331.92-10.05L331.92-10.05ZM324.17-21.9L324.12-12.15 328.82-12Q333.27-13.25 333.27-17.45L333.27-17.45Q333.27-19.65 331.97-20.75 330.67-21.85 328.02-21.95L328.02-21.95 324.17-21.9ZM352.51-8.7L352.46-7.15 352.61 0 348.86 0 349.06-7.15 349.01-8.7 340.56-24.9 344.66-24.9 345.16-23.45 350.76-12.75 351.01-12.75 357.11-23.3 357.76-24.9 361.76-24.9 352.51-8.7Z" opacity="1" transform="matrix(1,0,0,1,0,0)" fill="#ffffff" class="wordmark-text-0" data-fill-palette-color="primary" id="text-0"></path></svg></g></svg></g></svg></g></svg></g></svg></g></svg></g></svg></g><g mask="url(#7c8187ab-71f7-4c78-8222-4697e6ef3700)"><g transform="matrix(2.7461801954898832, 0, 0, 2.7461801954898832, 75.16602361149752, 1)"><svg xmlns="http://www.w3.org/2000/svg" xmlns:xlink="http://www.w3.org/1999/xlink" version="1.1" x="0" y="0" viewBox="0.3583327531814575 0.3587183356285095 89.28327178955078 89.28765869140625" enable-background="new 0 0 90 90" xml:space="preserve" height="89.28765869140625" width="89.28327178955078" class="icon-none" data-fill-palette-color="accent" id="none"><polygon points="57.928,58.169 57.875,76.027 45.397,63.548 45.397,45.639 " fill="#ffffff" data-fill-palette-color="accent"></polygon><polygon points="76.027,57.875 58.475,57.927 45.826,45.279 63.432,45.279 " fill="#ffffff" data-fill-palette-color="accent"></polygon><polygon points="76.027,32.125 63.432,44.721 45.707,44.721 58.355,32.073 " fill="#ffffff" data-fill-palette-color="accent"></polygon><polygon points="44.838,45.59 44.838,63.314 32.125,76.027 32.074,58.355 " fill="#ffffff" data-fill-palette-color="accent"></polygon><polygon points="57.928,31.712 45.397,44.243 45.397,26.452 57.875,13.974 " fill="#ffffff" data-fill-palette-color="accent"></polygon><polygon points="44.838,26.687 44.838,44.291 32.074,31.526 32.125,13.974 " fill="#ffffff" data-fill-palette-color="accent"></polygon><polygon points="44.479,44.721 26.569,44.721 13.974,32.125 31.832,32.073 " fill="#ffffff" data-fill-palette-color="accent"></polygon><polygon points="44.36,45.279 31.712,57.927 13.974,57.875 26.569,45.279 " fill="#ffffff" data-fill-palette-color="accent"></polygon><rect x="58.48" y="58.48" width="18.049" height="18.049" fill="#ffffff" data-fill-palette-color="accent"></rect><polygon points="76.527,13.474 76.527,31.516 58.914,31.516 58.912,31.518 58.484,31.516 58.484,13.474 " fill="#ffffff" data-fill-palette-color="accent"></polygon><polygon points="31.518,30.971 31.516,31.516 13.474,31.516 13.474,13.474 31.516,13.474 31.516,30.968 " fill="#ffffff" data-fill-palette-color="accent"></polygon><rect x="13.471" y="58.48" width="18.05" height="18.049" fill="#ffffff" data-fill-palette-color="accent"></rect><rect x="67.864" y="35.981" transform="matrix(0.7071 -0.7071 0.7071 0.7071 -9.3022 67.5465)" width="18.042" height="18.042" fill="#ffffff" data-fill-palette-color="accent"></rect><rect x="35.979" y="4.094" transform="matrix(0.7071 -0.7071 0.7071 0.7071 3.9068 35.6621)" width="18.042" height="18.042" fill="#ffffff" data-fill-palette-color="accent"></rect><rect x="4.095" y="35.98" transform="matrix(0.7071 -0.7071 0.7071 0.7071 -27.9787 22.4536)" width="18.041" height="18.041" fill="#ffffff" data-fill-palette-color="accent"></rect><rect x="35.98" y="67.865" transform="matrix(0.7071 -0.7071 0.7071 0.7071 -41.1877 54.3437)" width="18.04" height="18.041" fill="#ffffff" data-fill-palette-color="accent"></rect></svg></g></g></svg></g><defs></defs></svg><rect width="395.52" height="247.2" fill="none" stroke="none" visibility="hidden"></rect></g></svg></g></svg>