<svg xmlns="http://www.w3.org/2000/svg" version="1.1" xmlns:xlink="http://www.w3.org/1999/xlink" xmlns:svgjs="http://svgjs.dev/svgjs" width="1000" height="1000" viewBox="0 0 1000 1000"><rect width="1000" height="1000" fill="#ffffff"></rect><g transform="matrix(0.7,0,0,0.7,150.0000000000001,106.25)"><svg viewBox="0 0 320 360" data-background-color="#ffffff" preserveAspectRatio="xMidYMid meet" height="1125" width="1000" xmlns="http://www.w3.org/2000/svg" xmlns:xlink="http://www.w3.org/1999/xlink"><g id="tight-bounds" transform="matrix(1,0,0,1,0,0)"><svg viewBox="0 0 320 360" height="360" width="320"><g><svg></svg></g><g><svg viewBox="0 0 320 360" height="360" width="320"><g><path xmlns="http://www.w3.org/2000/svg" d="M20.961 227.22l3.726 4.658-1.863-6.056c-0.466-2.795-3.726 0.466-1.863 1.398M25.153 224.425c1.397 2.329 2.795 4.658 2.795 6.987 0 3.261 2.795 4.658 5.123 5.589-3.261-3.726-5.124-13.974-7.918-12.576M204.017 26.929c7.918 0 15.371-0.932 23.756 0.931 20.495 5.124 37.729 15.371 49.374 29.811l32.606 52.169c1.397 13.042 4.192 27.482 3.726 43.319 3.261 0 2.795-4.658 6.521-5.59-3.726 9.316-5.59 20.961-6.521 34.469-2.329-7.453 0-18.632 0.466-24.687-3.261 5.124-5.124 1.397-5.124-0.932 0.466-3.726-1.397-3.261-2.795-4.658-5.124-4.658-8.384-9.782-12.11-17.7 2.329-6.055 2.795-14.905-4.658-19.563-2.329-1.397-5.124-3.726-6.521-7.453-1.863-5.124-5.124-11.179-4.193-19.097 0.466-2.329-6.987 5.124-11.179 1.863-18.166-12.576-36.332-27.016-58.224-39.127-11.645 0-20.029-4.192-24.221-9.316-3.726-4.658-0.932-10.713 4.658-11.179 3.261 0 6.987-0.932 9.782 0.932 0.466-1.863 2.329-4.192 4.657-4.192M157.904 16.215l0.932 0.466c4.658 0.932 6.987 7.453 12.11 5.124 0 3.261 0.466 6.521-0.466 8.85-1.397 3.726-5.59 3.726-8.85 3.726-31.208-1.863-49.374 11.179-68.471 22.358-5.124 3.261-10.713 5.59-14.906 9.782-20.029 18.632-41.921 35.866-47.045 70.335l-4.192 38.195c-0.466 4.192-5.124 8.384-4.192 13.508l3.26 22.824c-3.261-3.261-5.124 0.932-4.192 2.795 0.466 1.397 2.329 6.055 5.124 1.863 3.726 6.987 7.453 20.495 12.576 26.55 15.837 18.632 36.332 35.4 53.101 52.169 4.192-0.932 7.453-0.932 8.384-3.727 1.397 2.795-1.397 5.59-3.726 6.056 7.453 4.658 15.837 8.85 27.016 9.781 14.44 0.932 27.948 3.261 40.524 6.522 6.521-1.863 13.042-2.795 20.029-3.261 2.329 0 3.726-3.726 6.521-4.658l0.466-4.658c2.795 4.192 2.329-1.397 0.466-4.192 3.261 2.795 4.192 5.124 5.589 6.987 0-1.397 3.726-6.521 3.727-0.466l0.931-6.055c1.397-0.932 1.863 5.124 3.261 0.931 1.397-4.192 4.192-0.932 6.987-2.329-0.932 1.863-0.466 5.59 2.794 3.261l3.727-3.261c2.329 5.59 6.055 3.261 7.918 2.329 20.495-13.042 40.99-28.413 60.553-43.784l-0.466 6.055 2.329-7.453c2.329 2.329 4.192 0.466 5.124-0.931 2.795-4.658 6.521-9.316 12.577-13.508-7.453 20.029-16.303 35.866-27.482 48.908l-4.658 5.59c0 3.261-0.932 7.453-4.658 7.918-1.863 0.466-5.59-0.932-8.384 1.863-1.397 1.863 3.261 5.59-0.466 2.795-3.261-2.329-6.521 0-10.248 0.932-2.795 0.932 1.863 3.726 2.795 5.589 0.932 1.863 1.863 3.726 1.398 6.056l-5.124-5.59c-6.055 3.261-9.782 9.316-14.906 13.974-2.329 1.863-1.397 5.124-1.397 7.918-3.261 0-6.987-0.932-8.85 0.932-1.397 1.863-0.932 4.658-0.932 7.453-4.658-0.466-5.124-7.453-9.315-6.056-4.192 0.932-8.85 1.397-12.577 3.727 2.795 5.59-4.658 2.329-3.726 3.26-6.987-4.192-13.042-7.453-20.495-4.658-15.837-5.124-35.4-2.795-49.84-0.931 0-2.329 0.466-4.658-0.466-5.124-0.932 2.329-3.726 1.397-3.26 1.397-8.85-6.055-17.7-9.782-27.016-14.905-8.384 0.932-16.303-3.261-18.632-5.59-6.521-6.055-13.974-2.795-20.029-4.192-13.042-3.261-17.7-16.769-19.098-26.084-0.932-4.658-4.658-6.521-6.055-6.056-6.055-19.563-15.371-37.263-22.824-55.429-1.863-4.658-1.397-9.316-1.397-14.44 2.329 0.932 4.658 0.466 4.192-2.794-2.329-15.371-7.918-27.016-13.974-38.195 3.261-15.837 3.726-34.469 11.179-48.443 6.521-12.576 18.632-19.098 27.016-29.811 2.795-3.726 2.795-8.85 5.59-12.11 9.316-9.316 18.632-19.098 28.879-27.482 4.658-3.726 10.247 0 17.234-1.397 2.329-8.384 11.645-15.837 20.495-13.508 3.726 0.932 11.179-8.85 13.508-9.782 3.726-1.397 1.863 3.726 1.863 6.987 8.85-6.987 20.961-10.713 32.14-14.906" fill="#000000" fill-rule="nonzero" stroke="none" stroke-width="1" stroke-linecap="butt" stroke-linejoin="miter" stroke-miterlimit="10" stroke-dasharray="" stroke-dashoffset="0" font-family="none" font-weight="none" font-size="none" text-anchor="none" style="mix-blend-mode: normal" data-fill-palette-color="tertiary"></path></g><g transform="matrix(1,0,0,1,78.22333522003952,90)"><svg viewBox="0 0 163.55332955992097 180" height="180" width="163.55332955992097"><g><svg viewBox="0 0 163.55332955992097 180" height="180" width="163.55332955992097"><g><svg viewBox="0 0 192 211.30722372324598" height="180" width="163.55332955992097"><g transform="matrix(1,0,0,1,0,114.32783957743797)"><svg viewBox="0 0 192 96.97938414580801" height="96.97938414580801" width="192"><g id="textblocktransform"><svg viewBox="0 0 192 96.97938414580801" height="96.97938414580801" width="192" id="textblock"><g><svg viewBox="0 0 192 54.97934386391252" height="54.97934386391252" width="192"><g transform="matrix(1,0,0,1,0,0)"><svg width="192" viewBox="5.25 -34.70000076293945 123.44000244140625 35.35000228881836" height="54.97934386391252" data-palette-color="#ed1703"><path d="M5.25-34.7L5.5-34.7 20.6-15.6 36.1-34.7 36.35-34.7 36.35-0.05 34.25-0.05 34.25-22.95Q34.25-24.65 34.48-27.15 34.7-29.65 34.95-30.75L34.95-30.75Q32.8-27.65 28.3-21.9 23.8-16.15 20.75-12.9L20.75-12.9 20-13.7Q16.05-17.8 11.6-23.3L11.6-23.3Q10.4-24.85 9-26.88 7.6-28.9 6.65-30.6L6.65-30.6Q7.35-25.15 7.35-22.95L7.35-22.95 7.35-0.05 5.25-0.05 5.25-34.7ZM46.85-34.25L49.1-34.25 49.1-18.15 51.8-18.25Q53.9-18.35 55.17-18.93 56.45-19.5 57.75-21.05L57.75-21.05Q59.6-23.35 61.3-26.5L61.3-26.5Q62.65-29 65.15-34.25L65.15-34.25 67.85-34.25 66-30.7Q63.6-26.05 63.05-25.05L63.05-25.05Q61.75-22.75 60.4-20.75L60.4-20.75Q59.95-20.1 59-19.1 58.05-18.1 57.3-17.55L57.3-17.55 67.7-2.65Q68.35-1.75 69.3-1.75L69.3-1.75Q69.9-1.75 70.2-1.9L70.2-1.9 71.3-0.15Q70.8 0.1 70.4 0.2 70 0.3 69.35 0.3L69.35 0.3Q67.4 0.3 66.05-1.5L66.05-1.5 55.25-16.75Q53.75-16.3 52.47-16.2 51.2-16.1 50.32-16.1 49.45-16.1 49.2-16.1L49.2-16.1 49.2-0.1 46.85-0.1 46.85-34.25ZM84.85 0.65Q81.45 0.65 78.75-1.07 76.05-2.8 74.52-5.85 73-8.9 73-12.8L73-12.8Q73-16.8 74.77-20.65 76.55-24.5 79.75-27.35L79.75-27.35Q82.45-29.8 85.77-31.15 89.1-32.5 92.4-32.5L92.4-32.5 92.4-30.55Q89.2-30.5 86.22-29.25 83.25-28 80.75-25.7L80.75-25.7Q78.4-23.5 76.85-20.45 75.3-17.4 74.95-14.35L74.95-14.35Q76.2-17.7 78.9-19.6 81.6-21.5 85.1-21.5L85.1-21.5Q88.15-21.5 90.72-20 93.3-18.5 94.82-15.95 96.35-13.4 96.35-10.4L96.35-10.4Q96.35-7.35 94.82-4.83 93.3-2.3 90.65-0.83 88 0.65 84.85 0.65L84.85 0.65ZM84.9-1.35Q87.4-1.35 89.55-2.58 91.7-3.8 92.97-5.9 94.25-8 94.25-10.45L94.25-10.45Q94.25-12.9 93-14.98 91.75-17.05 89.62-18.28 87.5-19.5 85.05-19.5L85.05-19.5Q82.55-19.5 80.37-18.23 78.2-16.95 76.87-14.85 75.55-12.75 75.55-10.35L75.55-10.35Q75.55-7.95 76.82-5.88 78.1-3.8 80.25-2.58 82.4-1.35 84.9-1.35L84.9-1.35ZM115.24 0.45Q111.04 0.45 107.99-1.85 104.94-4.15 103.39-7.93 101.84-11.7 101.84-16.15L101.84-16.15Q101.84-20.6 103.42-24.35 104.99-28.1 108.04-30.35 111.09-32.6 115.24-32.6L115.24-32.6Q119.44-32.6 122.49-30.3 125.54-28 127.12-24.2 128.69-20.4 128.69-15.95L128.69-15.95Q128.69-11.45 127.09-7.73 125.49-4 122.44-1.78 119.39 0.45 115.24 0.45L115.24 0.45ZM115.34-1.45Q119.04-1.45 121.59-3.58 124.14-5.7 125.37-9.08 126.59-12.45 126.59-16.2L126.59-16.2Q126.59-20.05 125.27-23.35 123.94-26.65 121.39-28.68 118.84-30.7 115.29-30.7L115.29-30.7Q111.69-30.7 109.12-28.65 106.54-26.6 105.24-23.28 103.94-19.95 103.94-16.15L103.94-16.15Q103.94-12.3 105.27-8.93 106.59-5.55 109.17-3.5 111.74-1.45 115.34-1.45L115.34-1.45Z" opacity="1" transform="matrix(1,0,0,1,0,0)" fill="#000000" class="wordmark-text-0" data-fill-palette-color="primary" id="text-0"></path></svg></g></svg></g><g transform="matrix(1,0,0,1,0,63.00214963791009)"><svg viewBox="0 0 192 33.97723450789793" height="33.97723450789793" width="192"><g transform="matrix(1,0,0,1,0,0)"><svg width="192" viewBox="2.8499999046325684 -36.29999923706055 278.8699951171875 49.349998474121094" height="33.97723450789793" data-palette-color="#ef233c"><path d="M33.85-17.6L33.85-13.8Q33.85-9.6 31.88-6.33 29.9-3.05 26.58-1.25 23.25 0.55 19.35 0.55L19.35 0.55Q14.25 0.55 10.53-1.58 6.8-3.7 4.83-7.58 2.85-11.45 2.85-16.5L2.85-16.5Q2.85-21.6 5.13-25.8 7.4-30 11.38-32.43 15.35-34.85 20.15-34.85L20.15-34.85Q22.9-34.85 25.5-33.93 28.1-33 29.75-31.3 31.4-29.6 31.4-27.3L31.4-27.3 28.7-27.25Q28.7-28.8 27.33-29.88 25.95-30.95 23.93-31.5 21.9-32.05 20.05-32.05L20.05-32.05Q16.05-32.05 12.8-29.95 9.55-27.85 7.7-24.3 5.85-20.75 5.85-16.5L5.85-16.5Q5.85-12.25 7.45-9.03 9.05-5.8 12.15-4.03 15.25-2.25 19.55-2.25L19.55-2.25Q22.45-2.25 25.1-3.7 27.75-5.15 29.38-7.65 31-10.15 31-13.2L31-13.2 31-14.8 18.85-14.8 18.85-17.6 33.85-17.6ZM79.22 0.4Q78.27-0.35 77.69-1.25 77.12-2.15 76.62-3.6L76.62-3.6Q75.62-1.65 73.64-0.58 71.67 0.5 68.87 0.5L68.87 0.5Q64.92 0.5 62.54-1.6 60.17-3.7 60.17-7.3L60.17-7.3Q60.17-11.1 62.84-13.2 65.52-15.3 70.42-15.3L70.42-15.3 76.22-15.3 76.22-17.1Q76.22-20.1 74.92-21.55 73.62-23 70.92-23L70.92-23Q68.92-23 66.82-22.28 64.72-21.55 63.07-20.3L63.07-20.3 61.72-22.5Q63.57-24.05 65.99-24.88 68.42-25.7 70.97-25.7L70.97-25.7Q75.02-25.7 77.12-23.63 79.22-21.55 79.22-17.65L79.22-17.65 79.22-7.2Q79.22-3.35 81.17-1.25L81.17-1.25 79.22 0.4ZM68.92-2.2Q72.27-2.2 74.24-4.05 76.22-5.9 76.22-8.85L76.22-8.85 76.22-12.6 71.12-12.6Q66.87-12.6 65.02-11.38 63.17-10.15 63.17-7.35L63.17-7.35Q63.17-4.85 64.67-3.53 66.17-2.2 68.92-2.2L68.92-2.2ZM109.09 0L109.09-36.3 112.09-36.3 112.09 0 109.09 0ZM142.06 0L142.06-36.3 145.06-36.3 145.06 0 142.06 0ZM176.18-11.45Q176.23-7.95 177.88-5.05 179.53-2.15 184.48-2.15L184.48-2.15Q186.63-2.15 188.45-2.7 190.28-3.25 192.43-4.5L192.43-4.5 193.73-2.4Q191.73-1.05 189.28-0.25 186.83 0.55 184.28 0.55L184.28 0.55Q179.03 0.55 176.1-2.83 173.18-6.2 173.18-11.7L173.18-11.7Q173.18-15.25 174.48-18.38 175.78-21.5 178.33-23.45 180.88-25.4 184.33-25.4L184.33-25.4Q187.23-25.4 189.6-24.03 191.98-22.65 193.35-20.28 194.73-17.9 194.73-15L194.73-15Q194.73-14.2 194.68-13.58 194.63-12.95 194.58-12.5L194.58-12.5 194.48-11.45 176.18-11.45ZM176.33-14.15L191.68-14.15Q191.73-14.5 191.73-15.15L191.73-15.15Q191.73-17.25 190.73-18.98 189.73-20.7 188.03-21.7 186.33-22.7 184.28-22.7L184.28-22.7Q181.23-22.7 179.05-20.48 176.88-18.25 176.33-14.15L176.33-14.15ZM232.9-25.5Q234.4-25.5 235.9-25.05L235.9-25.05 235.9-22.25Q234.45-22.6 233-22.6L233-22.6Q230.45-22.6 228.85-21.35L228.85-21.35Q227.25-20.1 226-17.8L226-17.8 226 0 223 0 223-17.5Q223-21.45 220.9-23.3L220.9-23.3 222.9-25.3Q223.8-24.75 224.6-23.65 225.4-22.55 225.75-21.2L225.75-21.2Q227.15-23.5 228.55-24.35L228.55-24.35Q230.3-25.5 232.9-25.5L232.9-25.5ZM262.62 10.6Q265.42 10.6 266.87 9.55L266.87 9.55Q267.57 9.1 268.12 8.33 268.67 7.55 268.97 6.6L268.97 6.6 270.87 0.65 259.92-25.15 263.07-25.15 272.07-3.05 278.62-25.15 281.72-25.15 271.57 7.5Q270.67 10.2 268.62 11.6L268.62 11.6Q266.47 13.05 262.97 13.05L262.97 13.05 262.62 10.6Z" opacity="1" transform="matrix(1,0,0,1,0,0)" fill="#000000" class="slogan-text-1" data-fill-palette-color="secondary" id="text-1"></path></svg></g></svg></g></svg></g></svg></g><g transform="matrix(1,0,0,1,36.672,0)"><svg viewBox="0 0 118.656 106.3050338034404" height="106.3050338034404" width="118.656"><g><svg xmlns="http://www.w3.org/2000/svg" xmlns:xlink="http://www.w3.org/1999/xlink" version="1.1" x="0" y="0" viewBox="0.9850000143051147 6.086999893188477 98.02999877929688 87.82600402832031" enable-background="new 0 0 100 100" xml:space="preserve" height="106.3050338034404" width="118.656" class="icon-icon-0" data-fill-palette-color="accent" id="icon-0"><path d="M50 6.087C22.93 6.087 0.985 25.748 0.985 50 0.985 74.253 22.93 93.913 50 93.913c27.07 0 49.015-19.66 49.015-43.913C99.015 25.748 77.07 6.087 50 6.087zM74.833 69.08c-32.125 19.166-60.851-0.667-66.379-6.454 14.492 11.331 37.288 14.851 56.379 6.787C76.146 64.037 82.172 56.755 85 47.079c2.829-10.751-0.536-20.965-11.143-27.954-9.899-6.451-22.628-8.601-35.355-5.376-9.899 3.226-17.678 9.139-20.506 17.74-3.535 9.139 2.829 18.277 13.435 23.115 10.606 3.763 25.456 2.15 31.113-6.45 3.535-5.914 2.121-13.44-5.657-17.203-3.535-1.613-8.303-1.955-10.86 0.174-3.521 2.932 1.89 0.361 5.874 2.206 2.517 1.165 5.6 3.165 4.986 8.372-0.772 6.559-11.313 9.677-18.385 7.526-7.778-2.688-11.314-8.601-10.606-14.515 1.414-6.451 7.778-11.289 15.557-12.902 13.435-2.688 25.455 4.301 29.698 13.978 3.535 9.138-2.121 17.739-12.021 23.115-8.484 4.301-18.385 5.376-27.577 2.688-13.435-3.763-22.627-12.901-23.334-24.19C9.511 22.888 22.238 12.137 39.916 8.374c19.799-3.225 39.598 4.301 48.083 18.277C95.777 41.166 91.609 59.071 74.833 69.08z" fill="#000000" data-fill-palette-color="accent"></path></svg></g></svg></g><g></g></svg></g></svg></g></svg></g></svg></g><defs></defs></svg><rect width="320" height="360" fill="none" stroke="none" visibility="hidden"></rect></g></svg></g></svg>