<svg xmlns="http://www.w3.org/2000/svg" version="1.1" xmlns:xlink="http://www.w3.org/1999/xlink" xmlns:svgjs="http://svgjs.dev/svgjs" width="1000" height="1000" viewBox="0 0 1000 1000"><rect width="1000" height="1000" fill="#000000"></rect><g transform="matrix(0.7,0,0,0.7,149.57575757575756,282.1265587044535)"><svg viewBox="0 0 396 247" data-background-color="#ffffff" preserveAspectRatio="xMidYMid meet" height="623" width="1000" xmlns="http://www.w3.org/2000/svg" xmlns:xlink="http://www.w3.org/1999/xlink"><g id="tight-bounds" transform="matrix(1,0,0,1,0.2400000000000091,-0.09999999999999432)"><svg viewBox="0 0 395.52 247.2" height="247.2" width="395.52"><g><svg></svg></g><g><svg viewBox="0 0 395.52 247.2" height="247.2" width="395.52"><g transform="matrix(1,0,0,1,39.55199999999999,88.00730190501343)"><svg viewBox="0 0 316.416 71.18539618997313" height="71.18539618997313" width="316.416"><g><svg viewBox="0 0 440.65563152694614 99.1360920863309" height="71.18539618997313" width="316.416"><g><rect width="4.105715312418992" height="99.1360920863309" x="109.38597037049838" y="0" fill="#ffffff" opacity="1" stroke-width="0" stroke="transparent" fill-opacity="1" class="rect-r$-0" data-fill-palette-color="primary" rx="1%" id="r$-0" data-palette-color="#ef233c"></rect></g><g transform="matrix(1,0,0,1,124.23963152694616,0.24660719424459643)"><svg viewBox="0 0 316.416 98.64287769784171" height="98.64287769784171" width="316.416"><g id="textblocktransform"><svg viewBox="0 0 316.416 98.64287769784171" height="98.64287769784171" width="316.416" id="textblock"><g><svg viewBox="0 0 316.416 98.64287769784171" height="98.64287769784171" width="316.416"><g transform="matrix(1,0,0,1,0,0)"><svg width="316.416" viewBox="1.4999999999999984 -35.5 250.2 75" height="98.64287769784171" data-palette-color="#ef233c"><svg></svg><svg></svg><g class="wordmark-text-0" data-fill-palette-color="primary" id="text-0"><path d="M17.45 0h-2.6c-0.333 0-0.607-0.11-0.82-0.33-0.22-0.213-0.33-0.487-0.33-0.82v0-11.8l-12.05-20.4c-0.033-0.1-0.067-0.2-0.1-0.3-0.033-0.1-0.05-0.217-0.05-0.35v0c0-0.267 0.1-0.5 0.3-0.7 0.2-0.2 0.433-0.3 0.7-0.3v0h2.6c0.3 0 0.567 0.077 0.8 0.23 0.233 0.147 0.4 0.353 0.5 0.62v0l9.75 16.2 9.75-16.2c0.167-0.267 0.36-0.473 0.58-0.62 0.213-0.153 0.47-0.23 0.77-0.23v0h2.55c0.3 0 0.55 0.1 0.75 0.3 0.2 0.2 0.3 0.433 0.3 0.7v0c0 0.133-0.017 0.25-0.05 0.35-0.033 0.1-0.083 0.2-0.15 0.3v0l-12 20.4v11.8c0 0.333-0.11 0.607-0.33 0.82-0.213 0.22-0.503 0.33-0.87 0.33zM36.9 0h-2.55c-0.267 0-0.5-0.1-0.7-0.3-0.2-0.2-0.3-0.433-0.3-0.7v0c0-0.167 0.017-0.35 0.05-0.55v0l12.4-32.35c0.133-0.333 0.317-0.6 0.55-0.8 0.233-0.2 0.583-0.3 1.05-0.3v0h3.4c0.467 0 0.817 0.1 1.05 0.3 0.233 0.2 0.417 0.467 0.55 0.8v0l12.35 32.35c0.067 0.2 0.1 0.383 0.1 0.55v0c0 0.267-0.1 0.5-0.3 0.7-0.2 0.2-0.433 0.3-0.7 0.3v0h-2.55c-0.4 0-0.69-0.1-0.87-0.3-0.187-0.2-0.313-0.383-0.38-0.55v0l-2.75-7.1h-16.4l-2.75 7.1c-0.033 0.167-0.15 0.35-0.35 0.55-0.2 0.2-0.5 0.3-0.9 0.3zM49.1-30l-6.75 17.75h13.5zM81.6 0h-2.6c-0.333 0-0.61-0.11-0.83-0.33-0.213-0.213-0.32-0.487-0.32-0.82v0-29.4h-9.6c-0.333 0-0.61-0.11-0.83-0.33-0.213-0.213-0.32-0.487-0.32-0.82v0-2.1c0-0.367 0.107-0.66 0.32-0.88 0.22-0.213 0.497-0.32 0.83-0.32v0h24.1c0.367 0 0.657 0.107 0.87 0.32 0.22 0.22 0.33 0.513 0.33 0.88v0 2.1c0 0.333-0.11 0.607-0.33 0.82-0.213 0.22-0.503 0.33-0.87 0.33v0h-9.55v29.4c0 0.333-0.11 0.607-0.33 0.82-0.213 0.22-0.503 0.33-0.87 0.33zM110.4 0.5v0c-2.9 0-5.333-0.45-7.3-1.35-1.967-0.9-3.473-2.06-4.52-3.48-1.053-1.413-1.613-2.903-1.68-4.47v0c0-0.267 0.107-0.51 0.32-0.73 0.22-0.213 0.48-0.32 0.78-0.32v0h2.55c0.4 0 0.7 0.1 0.9 0.3 0.2 0.2 0.333 0.433 0.4 0.7v0c0.2 0.8 0.617 1.59 1.25 2.37 0.633 0.787 1.543 1.437 2.73 1.95 1.18 0.52 2.703 0.78 4.57 0.78v0c2.867 0 4.973-0.51 6.32-1.53 1.353-1.013 2.03-2.37 2.03-4.07v0c0-1.167-0.36-2.11-1.08-2.83-0.713-0.713-1.803-1.353-3.27-1.92-1.467-0.567-3.367-1.183-5.7-1.85v0c-2.433-0.7-4.45-1.467-6.05-2.3-1.6-0.833-2.79-1.867-3.57-3.1-0.787-1.233-1.18-2.8-1.18-4.7v0c0-1.8 0.483-3.41 1.45-4.83 0.967-1.413 2.367-2.537 4.2-3.37 1.833-0.833 4.033-1.25 6.6-1.25v0c2.067 0 3.877 0.273 5.43 0.82 1.547 0.553 2.837 1.287 3.87 2.2 1.033 0.92 1.817 1.903 2.35 2.95 0.533 1.053 0.817 2.08 0.85 3.08v0c0 0.233-0.083 0.457-0.25 0.67-0.167 0.22-0.433 0.33-0.8 0.33v0h-2.65c-0.233 0-0.477-0.067-0.73-0.2-0.247-0.133-0.437-0.383-0.57-0.75v0c-0.2-1.367-0.967-2.517-2.3-3.45-1.333-0.933-3.067-1.4-5.2-1.4v0c-2.167 0-3.923 0.417-5.27 1.25-1.353 0.833-2.03 2.133-2.03 3.9v0c0 1.133 0.317 2.073 0.95 2.82 0.633 0.753 1.633 1.413 3 1.98 1.367 0.567 3.15 1.167 5.35 1.8v0c2.667 0.733 4.85 1.507 6.55 2.32 1.7 0.82 2.957 1.837 3.77 3.05 0.82 1.22 1.23 2.78 1.23 4.68v0c0 2.1-0.55 3.89-1.65 5.37-1.1 1.487-2.643 2.62-4.63 3.4-1.98 0.787-4.32 1.18-7.02 1.18zM143.45 0.5v0c-2.8 0-5.21-0.5-7.23-1.5-2.013-1-3.56-2.527-4.64-4.58-1.087-2.047-1.63-4.687-1.63-7.92v0-20.3c0-0.367 0.1-0.66 0.3-0.88 0.2-0.213 0.483-0.32 0.85-0.32v0h2.55c0.367 0 0.66 0.107 0.88 0.32 0.213 0.22 0.32 0.513 0.32 0.88v0 20.4c0 3.267 0.767 5.683 2.3 7.25 1.533 1.567 3.633 2.35 6.3 2.35v0c2.633 0 4.727-0.783 6.28-2.35 1.547-1.567 2.32-3.983 2.32-7.25v0-20.4c0-0.367 0.11-0.66 0.33-0.88 0.213-0.213 0.487-0.32 0.82-0.32v0h2.6c0.333 0 0.61 0.107 0.83 0.32 0.213 0.22 0.32 0.513 0.32 0.88v0 20.3c0 3.233-0.54 5.873-1.62 7.92-1.087 2.053-2.63 3.58-4.63 4.58-2 1-4.417 1.5-7.25 1.5zM168.95 0h-2.5c-0.367 0-0.65-0.11-0.85-0.33-0.2-0.213-0.3-0.487-0.3-0.82v0-32.65c0-0.367 0.1-0.66 0.3-0.88 0.2-0.213 0.483-0.32 0.85-0.32v0h2.5c0.367 0 0.66 0.107 0.88 0.32 0.213 0.22 0.32 0.513 0.32 0.88v0 12.4l13.35-12.8c0.133-0.133 0.36-0.3 0.68-0.5 0.313-0.2 0.737-0.3 1.27-0.3v0h2.7c0.267 0 0.5 0.1 0.7 0.3 0.2 0.2 0.3 0.433 0.3 0.7v0c0 0.267-0.067 0.483-0.2 0.65v0l-15.45 15.1 16.45 16.55c0.167 0.2 0.25 0.433 0.25 0.7v0c0 0.267-0.1 0.5-0.3 0.7-0.2 0.2-0.433 0.3-0.7 0.3v0h-2.8c-0.567 0-1-0.11-1.3-0.33-0.3-0.213-0.517-0.387-0.65-0.52v0l-14.3-14.05v13.75c0 0.333-0.107 0.607-0.32 0.82-0.22 0.22-0.513 0.33-0.88 0.33zM217.55 0h-21.05c-0.367 0-0.65-0.11-0.85-0.33-0.2-0.213-0.3-0.487-0.3-0.82v0-32.65c0-0.367 0.1-0.66 0.3-0.88 0.2-0.213 0.483-0.32 0.85-0.32v0h20.65c0.367 0 0.65 0.107 0.85 0.32 0.2 0.22 0.3 0.513 0.3 0.88v0 1.9c0 0.367-0.1 0.65-0.3 0.85-0.2 0.2-0.483 0.3-0.85 0.3v0h-17v10.95h15.9c0.367 0 0.65 0.107 0.85 0.32 0.2 0.22 0.3 0.513 0.3 0.88v0 1.85c0 0.333-0.1 0.607-0.3 0.82-0.2 0.22-0.483 0.33-0.85 0.33v0h-15.9v11.35h17.4c0.367 0 0.65 0.1 0.85 0.3 0.2 0.2 0.3 0.483 0.3 0.85v0 1.95c0 0.333-0.1 0.607-0.3 0.82-0.2 0.22-0.483 0.33-0.85 0.33zM229.2 0h-2.4c-0.367 0-0.65-0.11-0.85-0.33-0.2-0.213-0.3-0.487-0.3-0.82v0-32.65c0-0.367 0.1-0.66 0.3-0.88 0.2-0.213 0.483-0.32 0.85-0.32v0h2.3c0.4 0 0.7 0.09 0.9 0.27 0.2 0.187 0.317 0.33 0.35 0.43v0l16.6 25.5v-25c0-0.367 0.1-0.66 0.3-0.88 0.2-0.213 0.483-0.32 0.85-0.32v0h2.4c0.367 0 0.66 0.107 0.88 0.32 0.213 0.22 0.32 0.513 0.32 0.88v0 32.6c0 0.333-0.107 0.617-0.32 0.85-0.22 0.233-0.497 0.35-0.83 0.35v0h-2.4c-0.367 0-0.64-0.1-0.82-0.3-0.187-0.2-0.313-0.333-0.38-0.4v0l-16.55-25.25v24.8c0 0.333-0.107 0.607-0.32 0.82-0.22 0.22-0.513 0.33-0.88 0.33z" fill="#ffffff" fill-rule="nonzero" stroke="none" stroke-width="1" stroke-linecap="butt" stroke-linejoin="miter" stroke-miterlimit="10" stroke-dasharray="" stroke-dashoffset="0" font-family="none" font-weight="none" font-size="none" text-anchor="none" style="mix-blend-mode: normal" data-fill-palette-color="primary" opacity="1"></path><path transform="translate(0,39)" d="M17.1 0.5v0c-2.967 0-5.473-0.55-7.52-1.65-2.053-1.1-3.62-2.65-4.7-4.65-1.087-2-1.697-4.35-1.83-7.05v0c-0.033-1.467-0.05-3.027-0.05-4.68 0-1.647 0.017-3.22 0.05-4.72v0c0.133-2.7 0.743-5.043 1.83-7.03 1.08-1.98 2.653-3.513 4.72-4.6 2.067-1.08 4.567-1.62 7.5-1.62v0c2.333 0 4.367 0.333 6.1 1 1.733 0.667 3.16 1.507 4.28 2.52 1.113 1.02 1.947 2.08 2.5 3.18 0.547 1.1 0.837 2.067 0.87 2.9v0c0.033 0.3-0.05 0.54-0.25 0.72-0.2 0.187-0.467 0.28-0.8 0.28v0h-2.95c-0.333 0-0.573-0.067-0.72-0.2-0.153-0.133-0.297-0.367-0.43-0.7v0c-0.3-0.867-0.79-1.717-1.47-2.55-0.687-0.833-1.603-1.527-2.75-2.08-1.153-0.547-2.613-0.82-4.38-0.82v0c-2.667 0-4.807 0.717-6.42 2.15-1.62 1.433-2.497 3.8-2.63 7.1v0c-0.1 2.967-0.1 5.933 0 8.9v0c0.133 3.333 1.017 5.723 2.65 7.17 1.633 1.453 3.767 2.18 6.4 2.18v0c1.767 0 3.343-0.333 4.73-1 1.38-0.667 2.47-1.677 3.27-3.03 0.8-1.347 1.2-3.07 1.2-5.17v0-2.1h-7.5c-0.333 0-0.607-0.11-0.82-0.33-0.22-0.213-0.33-0.503-0.33-0.87v0-1.6c0-0.367 0.11-0.66 0.33-0.88 0.213-0.213 0.487-0.32 0.82-0.32v0h11.3c0.367 0 0.65 0.107 0.85 0.32 0.2 0.22 0.3 0.513 0.3 0.88v0 4.8c0 2.733-0.557 5.117-1.67 7.15-1.12 2.033-2.747 3.607-4.88 4.72-2.133 1.12-4.667 1.68-7.6 1.68zM38.6 0h-2.55c-0.267 0-0.5-0.1-0.7-0.3-0.2-0.2-0.3-0.433-0.3-0.7v0c0-0.167 0.017-0.35 0.05-0.55v0l12.4-32.35c0.133-0.333 0.317-0.6 0.55-0.8 0.233-0.2 0.583-0.3 1.05-0.3v0h3.4c0.467 0 0.817 0.1 1.05 0.3 0.233 0.2 0.417 0.467 0.55 0.8v0l12.35 32.35c0.067 0.2 0.1 0.383 0.1 0.55v0c0 0.267-0.1 0.5-0.3 0.7-0.2 0.2-0.433 0.3-0.7 0.3v0h-2.55c-0.4 0-0.69-0.1-0.87-0.3-0.187-0.2-0.313-0.383-0.38-0.55v0l-2.75-7.1h-16.4l-2.75 7.1c-0.033 0.167-0.15 0.35-0.35 0.55-0.2 0.2-0.5 0.3-0.9 0.3zM50.8-30l-6.75 17.75h13.5zM93.45 0h-20.4c-0.367 0-0.65-0.11-0.85-0.33-0.2-0.213-0.3-0.487-0.3-0.82v0-32.7c0-0.333 0.1-0.61 0.3-0.83 0.2-0.213 0.483-0.32 0.85-0.32v0h2.65c0.333 0 0.61 0.107 0.83 0.32 0.213 0.22 0.32 0.497 0.32 0.83v0 29.5h16.6c0.367 0 0.66 0.107 0.88 0.32 0.213 0.22 0.32 0.513 0.32 0.88v0 2c0 0.333-0.107 0.607-0.32 0.82-0.22 0.22-0.513 0.33-0.88 0.33zM121.6 0h-20.4c-0.367 0-0.65-0.11-0.85-0.33-0.2-0.213-0.3-0.487-0.3-0.82v0-32.7c0-0.333 0.1-0.61 0.3-0.83 0.2-0.213 0.483-0.32 0.85-0.32v0h2.65c0.333 0 0.61 0.107 0.83 0.32 0.213 0.22 0.32 0.497 0.32 0.83v0 29.5h16.6c0.367 0 0.66 0.107 0.88 0.32 0.213 0.22 0.32 0.513 0.32 0.88v0 2c0 0.333-0.107 0.607-0.32 0.82-0.22 0.22-0.513 0.33-0.88 0.33zM150.4 0h-21.05c-0.367 0-0.65-0.11-0.85-0.33-0.2-0.213-0.3-0.487-0.3-0.82v0-32.65c0-0.367 0.1-0.66 0.3-0.88 0.2-0.213 0.483-0.32 0.85-0.32v0h20.65c0.367 0 0.65 0.107 0.85 0.32 0.2 0.22 0.3 0.513 0.3 0.88v0 1.9c0 0.367-0.1 0.65-0.3 0.85-0.2 0.2-0.483 0.3-0.85 0.3v0h-17v10.95h15.9c0.367 0 0.65 0.107 0.85 0.32 0.2 0.22 0.3 0.513 0.3 0.88v0 1.85c0 0.333-0.1 0.607-0.3 0.82-0.2 0.22-0.483 0.33-0.85 0.33v0h-15.9v11.35h17.4c0.367 0 0.65 0.1 0.85 0.3 0.2 0.2 0.3 0.483 0.3 0.85v0 1.95c0 0.333-0.1 0.607-0.3 0.82-0.2 0.22-0.483 0.33-0.85 0.33zM162.2 0h-2.55c-0.367 0-0.65-0.11-0.85-0.33-0.2-0.213-0.3-0.487-0.3-0.82v0-32.65c0-0.367 0.1-0.66 0.3-0.88 0.2-0.213 0.483-0.32 0.85-0.32v0h12.2c3.767 0 6.75 0.883 8.95 2.65 2.2 1.767 3.3 4.383 3.3 7.85v0c0 2.567-0.64 4.657-1.92 6.27-1.287 1.62-3.03 2.747-5.23 3.38v0l7.7 13.3c0.1 0.2 0.15 0.383 0.15 0.55v0c0 0.267-0.107 0.5-0.32 0.7-0.22 0.2-0.463 0.3-0.73 0.3v0h-2.4c-0.567 0-0.983-0.15-1.25-0.45-0.267-0.3-0.5-0.6-0.7-0.9v0l-7.25-12.7h-8.75v12.9c0 0.333-0.107 0.607-0.32 0.82-0.22 0.22-0.513 0.33-0.88 0.33zM163.4-30.8v12.5h8.25c2.5 0 4.367-0.527 5.6-1.58 1.233-1.047 1.85-2.603 1.85-4.67v0c0-2.033-0.607-3.583-1.82-4.65-1.22-1.067-3.097-1.6-5.63-1.6v0zM204.35 0h-2.6c-0.333 0-0.607-0.11-0.82-0.33-0.22-0.213-0.33-0.487-0.33-0.82v0-11.8l-12.05-20.4c-0.033-0.1-0.067-0.2-0.1-0.3-0.033-0.1-0.05-0.217-0.05-0.35v0c0-0.267 0.1-0.5 0.3-0.7 0.2-0.2 0.433-0.3 0.7-0.3v0h2.6c0.3 0 0.567 0.077 0.8 0.23 0.233 0.147 0.4 0.353 0.5 0.62v0l9.75 16.2 9.75-16.2c0.167-0.267 0.36-0.473 0.58-0.62 0.213-0.153 0.47-0.23 0.77-0.23v0h2.55c0.3 0 0.55 0.1 0.75 0.3 0.2 0.2 0.3 0.433 0.3 0.7v0c0 0.133-0.017 0.25-0.05 0.35-0.033 0.1-0.083 0.2-0.15 0.3v0l-12 20.4v11.8c0 0.333-0.107 0.607-0.32 0.82-0.22 0.22-0.513 0.33-0.88 0.33z" fill="#ffffff" fill-rule="nonzero" stroke="none" stroke-width="1" stroke-linecap="butt" stroke-linejoin="miter" stroke-miterlimit="10" stroke-dasharray="" stroke-dashoffset="0" font-family="none" font-weight="none" font-size="none" text-anchor="none" style="mix-blend-mode: normal" data-fill-palette-color="primary" opacity="1"></path></g></svg></g></svg></g></svg></g></svg></g><g transform="matrix(1,0,0,1,0,0.24660719424459643)"><svg viewBox="0 0 98.63802452646961 98.64287769784171" height="98.64287769784171" width="98.63802452646961"><g><svg xmlns="http://www.w3.org/2000/svg" xmlns:xlink="http://www.w3.org/1999/xlink" version="1.1" x="0" y="0" viewBox="0.35833249999999595 0.3587183000000067 89.28326340000001 89.2876563" enable-background="new 0 0 90 90" xml:space="preserve" height="98.64287769784171" width="98.63802452646961" class="icon-icon-0" data-fill-palette-color="accent" id="icon-0"><polygon points="57.928,58.169 57.875,76.027 45.397,63.548 45.397,45.639 " fill="#ffffff" data-fill-palette-color="accent"></polygon><polygon points="76.027,57.875 58.475,57.927 45.826,45.279 63.432,45.279 " fill="#ffffff" data-fill-palette-color="accent"></polygon><polygon points="76.027,32.125 63.432,44.721 45.707,44.721 58.355,32.073 " fill="#ffffff" data-fill-palette-color="accent"></polygon><polygon points="44.838,45.59 44.838,63.314 32.125,76.027 32.074,58.355 " fill="#ffffff" data-fill-palette-color="accent"></polygon><polygon points="57.928,31.712 45.397,44.243 45.397,26.452 57.875,13.974 " fill="#ffffff" data-fill-palette-color="accent"></polygon><polygon points="44.838,26.687 44.838,44.291 32.074,31.526 32.125,13.974 " fill="#ffffff" data-fill-palette-color="accent"></polygon><polygon points="44.479,44.721 26.569,44.721 13.974,32.125 31.832,32.073 " fill="#ffffff" data-fill-palette-color="accent"></polygon><polygon points="44.36,45.279 31.712,57.927 13.974,57.875 26.569,45.279 " fill="#ffffff" data-fill-palette-color="accent"></polygon><rect x="58.48" y="58.48" width="18.049" height="18.049" fill="#ffffff" data-fill-palette-color="accent"></rect><polygon points="76.527,13.474 76.527,31.516 58.914,31.516 58.912,31.518 58.484,31.516 58.484,13.474 " fill="#ffffff" data-fill-palette-color="accent"></polygon><polygon points="31.518,30.971 31.516,31.516 13.474,31.516 13.474,13.474 31.516,13.474 31.516,30.968 " fill="#ffffff" data-fill-palette-color="accent"></polygon><rect x="13.471" y="58.48" width="18.05" height="18.049" fill="#ffffff" data-fill-palette-color="accent"></rect><rect x="67.864" y="35.981" transform="matrix(0.7071 -0.7071 0.7071 0.7071 -9.3022 67.5465)" width="18.042" height="18.042" fill="#ffffff" data-fill-palette-color="accent"></rect><rect x="35.979" y="4.094" transform="matrix(0.7071 -0.7071 0.7071 0.7071 3.9068 35.6621)" width="18.042" height="18.042" fill="#ffffff" data-fill-palette-color="accent"></rect><rect x="4.095" y="35.98" transform="matrix(0.7071 -0.7071 0.7071 0.7071 -27.9787 22.4536)" width="18.041" height="18.041" fill="#ffffff" data-fill-palette-color="accent"></rect><rect x="35.98" y="67.865" transform="matrix(0.7071 -0.7071 0.7071 0.7071 -41.1877 54.3437)" width="18.04" height="18.041" fill="#ffffff" data-fill-palette-color="accent"></rect></svg></g></svg></g></svg></g></svg></g><g><path d="M0 247.2v-247.2h395.52v247.2zM392.572 244.252v-241.304h-389.624v241.304z" fill="#ffffff" fill-rule="nonzero" stroke="none" stroke-width="1" stroke-linecap="butt" stroke-linejoin="miter" stroke-miterlimit="10" stroke-dasharray="" stroke-dashoffset="0" font-family="none" font-weight="none" font-size="none" text-anchor="none" style="mix-blend-mode: normal" data-fill-palette-color="tertiary"></path></g></svg></g><defs></defs></svg><rect width="395.52" height="247.2" fill="none" stroke="none" visibility="hidden"></rect></g></svg></g></svg>