<svg xmlns="http://www.w3.org/2000/svg" version="1.1" xmlns:xlink="http://www.w3.org/1999/xlink" xmlns:svgjs="http://svgjs.dev/svgjs" width="1000" height="1000" viewBox="0 0 1000 1000"><rect width="1000" height="1000" fill="#ffffff"></rect><g transform="matrix(0.7,0,0,0.7,150,106.25)"><svg viewBox="0 0 320 360" data-background-color="#ffffff" preserveAspectRatio="xMidYMid meet" height="1125" width="1000" xmlns="http://www.w3.org/2000/svg" xmlns:xlink="http://www.w3.org/1999/xlink"><g id="tight-bounds" transform="matrix(1,0,0,1,0,0)"><svg viewBox="0 0 320 360" height="360" width="320"><g><svg></svg></g><g><svg viewBox="0 0 320 360" height="360" width="320"><g><path xmlns="http://www.w3.org/2000/svg" d="M165.217 303.356c-1.404-1.755-2.809-0.702-2.808-1.755-8.426 2.106-24.223-3.511-30.894-2.809 1.404-2.106-2.106-1.755-2.106-3.159-1.404 2.106-2.809 0-4.915 0.702-2.106-5.266-10.532-1.404-11.585-8.075-4.915 0-6.67-2.809-11.586-5.617 0.351-0.351 0.702-0.351 1.054-0.702-2.457-0.351-2.457-1.755-4.564-1.755l0.702-1.405c-3.862-0.702-5.266-6.67-10.883-8.776-1.755-0.351-5.617-6.319-7.723-7.724-1.053-0.702-2.809-0.702-0.352-1.053-0.351-0.351-0.351-1.053 0-1.404-2.457-0.702-2.809-2.809-5.968-3.862-0.351-1.053 0.702-1.755 0-2.457-0.702-0.351-1.755 0.351-2.457 0-0.351 6.319 6.67 7.021 8.777 12.287-0.702-0.702-1.755-2.809-2.458-1.404-0.351 1.053 2.809 4.915 2.809 2.808-1.053 0.702-1.404-1.053-0.703-1.404 1.053 1.755 3.16 1.404 3.16 2.809-1.053 1.053-2.457-1.053-2.106 0.702 3.16 1.755 2.809 3.511 4.563 5.968-1.404-1.755-1.755 1.404-3.159 0-0.351-5.266-6.319-4.213-6.319-9.479-0.702-1.755-1.404-0.351-2.458-1.053 1.404-1.404-4.213-6.319-4.213-4.564-1.755-2.106-0.702-2.809-1.053-4.213-1.404-0.351-0.351 1.404-1.404 0.351 1.404-2.457-1.755-5.617-3.862-8.074l1.405-0.702c-2.457-1.404-2.809-4.213-4.564-7.373-2.106 3.16 4.213 10.181 3.159 11.585 0 0.351 2.457 3.16 3.16 4.564 2.809 4.915 4.915 10.883 8.777 13.692-0.702-0.351-0.351-2.457 0.702-1.404 0 1.053-0.702 2.106-0.702 3.159 2.106 2.106 3.862 3.862 5.968 5.968-4.564-2.809-9.128-5.617-12.288-9.83 1.755-0.351 3.511 2.809 4.915 2.458-3.511-2.809-2.457-3.862-3.861-7.372-1.404-1.053 0.351 1.404-1.054 1.755-4.564-4.213-8.075-6.67-10.181-10.532 0.351-0.351 0.702-0.702 0.703-1.404-0.351-0.351-0.351-0.351-0.703-0.702 2.106 2.106 2.809 3.862 5.266 4.212-1.053-1.053 0-1.404-1.404-2.457-0.702-1.404-1.755 0.702-2.457-0.351 0.702-1.053 0-2.457 0-3.511-0.702 0-1.404 0-1.756-1.053-0.702-0.351-1.053 0-1.404 0.702-0.351-0.351-0.351-1.053-0.702-1.404v-0.351c-0.351-0.351-0.702-1.053-1.053-1.405-2.809-7.372-4.564-17.202-8.426-23.521 1.053-4.213-0.702-12.638-1.755-14.745 1.053-1.755 0.351-9.83-0.351-11.234-1.755 0.702 0.351 4.564-1.404 5.617-1.755-7.723 1.053-16.5 0.351-23.521 0.702 0 1.404 0 1.404-0.351-1.053-1.053 0.702-3.16 0.351-5.617 1.404-3.16-3.16 4.564-3.16 7.723-0.351 0.702-1.755 0-1.404 1.756 0 2.457 0.702 7.372-0.702 10.883-0.702 0-0.702-0.702-1.404-0.351-0.351 1.755-0.702 3.862-1.053 5.617-0.351-0.702-0.702-1.755-0.703-2.107-1.755-8.777 0-18.958-0.702-26.33 1.404 0 1.404-2.106 2.458-2.808-0.351 2.809-1.053 6.319 0.702 7.021 1.404-13.692 4.213-28.787 10.532-43.532 4.564-10.883 11.234-21.766 19.308-30.543 0.702 1.053-0.351 3.511 0 4.564 7.021-7.372 11.585-16.149 19.309-21.064 0.351 1.755-3.16 3.16-3.16 4.564 3.16-3.16 4.213-2.106 7.724-3.159 1.053-1.404-1.404 0-1.756-1.405 2.106-1.404 3.511-3.16 4.915-4.212 0 0.351-0.351 0.351-0.351 0.702 3.862-1.053 4.213-3.16 7.022-3.862-0.351-0.351-1.053-0.702-2.107-0.351 0.702-0.351 1.755-1.053 2.809-1.404-0.351 0-0.351 0.351-0.702 0.351 2.106-1.053 0.351 0.351 0.351 1.053 0.351 0 0.702-0.351 0.702-0.351-2.106 1.404-3.511 2.106-4.213 4.564 1.053-0.702 1.404 0 2.809-1.054 1.404-0.702-0.351-1.755 0.702-2.457 1.053 0.702 2.457 0.351 3.51 0.351 0-0.702 0.351-1.404 1.054-1.755 0.351-0.702 0-1.053-0.352-1.053 0.351-0.351 0.702-0.351 1.405-0.703 0 0 0.351 0 0.351 0.351 5.968-2.809 12.638-5.266 18.957-7.372 3.862-0.351 8.777-0.351 10.883-2.808-0.702 0-1.404 0.351-1.755 0 0.351 0 1.053-0.351 1.404-0.351 0.702 0.702 1.755 0 0.702 1.404 0.351 0 0.351 0 0.703-0.351 0 0.351 0 0.351 0.351 0.702 0.351 0 0.702-0.351 1.053-1.053 0.351 0 0.702 0 1.053-0.351l-0.351 0.351c2.809-0.702 5.266-0.351 9.128-1.054 0-0.351 0-0.702 0-1.053 0.702 0 1.053-0.351 1.755-0.351v0.351c1.404-0.702 2.809 0.702 2.808 0 0.351 0 0.351 0 0.703 0 0 0.702-0.351 1.053-0.351 1.405 1.755 0 2.809 0 3.51-1.054-0.351-0.351-0.702-0.351-1.053-0.351 0.702 0 1.404-0.351 2.106-0.702 1.053 0.351 1.404 0.702 1.405 2.107 1.755-3.16 7.372 0.702 9.829 0 1.053 0 0.702-1.404 1.405-2.107 0.351 0 0.702 0 1.053 0 1.755 1.404 4.213 2.809 7.372 3.16-2.809-0.702 0.351-1.053 0.702-1.405-0.702 0-0.702-0.351-0.702-0.702 1.053 0 2.106 0.351 3.16 0.351 0 0.702 0.351 1.053 1.053 1.054 0.702 0 0.702-0.351 0.702-1.054 1.053 0 1.755 0 2.809 0.351-0.351 1.404 1.755 1.755 2.457 2.809-2.809-0.702-5.968-1.755-7.021 0 11.234 2.457 23.521 5.968 35.457 11.936 0 0 0 0 0 0.351h0.352c2.106 1.053 4.213 2.106 6.319 3.16 1.404 0.702 2.457 1.404 3.861 2.457 0 0.351 0 0.702 0.703 0.702h0.351c1.404 1.053 2.809 1.755 4.212 2.809 1.404 2.106 2.809 4.915 5.266 4.213 5.266 8.075 10.883 11.234 15.447 19.659 0.351-1.404 1.404 3.16 3.16 3.511-2.809-0.351 1.755 1.755-1.053 1.404 2.457 2.457 3.16 3.511 3.51 6.319-0.702-1.404-1.053-1.755-1.404-0.351-0.351 2.106 2.457-0.351 3.511 1.756-2.106 0-1.404 1.404-1.054 3.159 1.053-1.053 0.702-2.106 1.756-1.755 1.404 1.404-0.702 1.755-0.351 2.809 1.053-1.404 1.404-0.702 2.808 0-1.755 0.351 1.053 2.809-1.053 1.755 1.404 1.755 1.755 2.809 1.053 4.564-1.404-2.106-0.351-3.511-2.457-3.16 4.213 3.511 2.106 11.585 7.021 12.287-3.16 0.702 0 2.106-1.755 2.458 2.106 0.702 1.053 3.511 3.51 4.213-0.351 1.755-1.053 2.809-1.404 4.563 1.053 1.404 1.404 4.213 3.16 4.564-1.053 1.053-0.351 3.862-1.404 4.915 1.404-0.702 2.106-0.702 3.159 0.702-1.755 1.404-0.351 2.809-1.404 3.16 3.16 8.075-0.702 24.575 1.053 30.894-2.106-1.053-1.404 2.457-2.808 2.457 2.457 1.053 0.351 2.809 1.404 4.564-4.915 2.809 0 10.532-6.67 12.287 0.702 4.915-2.106 7.021-4.213 12.288-0.351-0.351-0.351-0.702-0.702-1.054-0.351 2.457-1.755 2.809-1.054 4.915l-1.404-0.702c0 3.862-5.968 5.968-7.372 11.936-0.351 1.755-5.617 6.319-7.022 8.777-0.702 1.053-0.351 2.809-1.053 0.351-0.351 0.351-1.053 0.351-1.404 0.351-0.351 2.457-2.457 3.16-3.16 6.319-0.702 0.351-1.755-0.702-2.457 0.351 0 0.702 0.702 1.755 0.351 2.458 6.319-0.351 6.319-7.723 11.234-10.181-0.351 1.053-2.457 2.106-1.053 2.808 1.053 0 4.213-3.511 2.457-3.159 1.053 0.702-1.053 1.404-1.404 1.053 1.755-1.404 1.053-3.16 2.458-3.511 1.053 0.702-1.053 2.457 1.053 2.107 1.404-3.16 3.16-3.511 5.266-5.266-1.404 1.404 1.755 1.755 0.351 3.159-5.266 1.053-3.511 7.021-8.777 7.724-1.404 1.053-0.351 1.404-0.702 2.457-1.755-1.053-5.617 4.915-4.213 4.564-1.755 1.755-2.809 1.053-4.212 1.404-0.351 1.404 1.404 0.351 0.702 1.405-2.457-1.053-5.617 2.457-7.724 4.915l-1.053-1.054c-1.053 2.809-3.862 3.16-7.021 5.266 3.511 1.755 9.479-5.617 11.234-4.564 0.351 0 3.16-2.809 4.213-3.861 4.564-3.511 10.181-6.319 12.287-10.181-0.351 0.702-2.457 0.702-1.404-0.351 1.053-0.351 2.106 0.351 3.159 0.351 5.617-7.723 12.638-14.043 17.905-23.17 0.351-0.351 0.702-1.053 1.053-1.756-0.702 2.106-1.755 3.862-2.458 5.968-5.617 3.862-7.723 15.096-14.393 16.851 0.351 3.862-3.16 4.915-4.915 9.479-1.053 1.404-1.755-1.053-2.809 0.702 1.053 4.915-8.777 4.564-8.425 9.128-0.702 0.351-1.755 0.702-2.458 1.404h-0.351c-0.351 0.351-0.351 0.351-0.702 0.702-1.755 1.053-3.16 2.106-4.564 3.16-4.915 2.809-11.585 4.915-16.851 7.723v-0.351c-1.404 0.702-3.16 0.351-2.809 1.756-1.053 0.702-2.106 1.404-3.159 2.106-0.351 0-0.351 0-0.702 0 0 0-0.351-0.351-0.702-0.351-0.702 0-0.702 0-1.054 0.351-4.564 0.351-10.532 2.457-12.287 3.862-1.755-1.053-9.83 0.702-11.234 1.404 0.702 1.053 2.809 0 4.564 0-1.053 0.351-2.106 0.702-2.458 1.404-0.351 0-0.351 0-0.702 0-0.351-1.053-1.404 0-1.755-0.351h0.351c-0.351-1.404-1.404-2.106-3.16-1.755 0 0.702 0 1.053-0.351 1.755 0.702 0 2.809-1.053 2.809 0-0.351 0-0.351 0.351 0 0.351-0.702 0.702-1.755 0.702-2.458 1.054-1.404 0-3.16 0-4.563 0-0.351-0.351-0.702-0.351-1.405-0.703-0.351 0.351-1.053 0.351-1.404 0.703-2.106 0-4.564 0.351-6.319 0.702 0-0.702 0-1.404-0.702-1.405-1.053 1.404-3.16-0.351-5.617 0.352-2.457-0.702 1.404 1.053 4.915 1.755-0.351 0.351-0.702 0.702-1.756 1.053M116.068 308.271c-4.915-4.564-15.096-6.67-16.851-10.181-2.809-0.351-7.021-5.617-10.532-6.319 1.755 0 0.351-1.053 0-1.755-0.702 0.702-1.404 1.053-2.106 1.053 0-2.809-2.809-4.564-5.266-6.319 1.755 1.053 3.16 1.755 5.266 2.106 0-0.702 0-1.404 0.702-1.404 2.457 2.457 5.266 4.915 8.425 7.372 4.213 3.862 25.979 13.692 29.841 15.447 0 0-0.702 1.404-0.351 1.404 1.755 1.053 3.16-1.053 3.511 1.404-5.617 0.702-7.723-3.16-12.639-2.808M277.909 226.824v0.351 0c-0.351 0 0-0.351 0-0.351M136.079 64.281c-0.351 0.351-0.702 0.351-0.702 0.351 0-0.351 0.351-0.351 0.702-0.351M129.409 66.036c0 0.351 0 0.351 0 0 0 0.351 0 0.351 0 0 0 0.351 0 0 0 0M106.238 73.408v0c0.351-0.351 0.351-0.351 0.703-0.351-0.351 0-0.702 0.351-0.703 0.351M162.409 61.823c-0.702 0-1.053 0-1.404-0.351 0.351 0 0.702 0 1.053 0h0.351c0 0 0 0 0 0.351M168.728 62.525c-0.351-0.351-1.404-0.702-2.457-0.702 0-0.351 0.351-0.702 0.351-0.702 0.351 0 0.702 0 1.053 0 0 0 0.351 0 0.351 0.351 0 0 0 0 0-0.351 0.351 0 0.351 0 0.702 0 0.351 0.702 0.702 1.053 0 1.404M180.313 63.579c-1.755 0.351-2.809-0.351-4.564-1.405 1.053 0 2.457 0.351 3.511 0.702 0.351 0 0.702 0.351 1.053 0.703M305.292 113.43c-0.702 0.351-1.053 0.351-1.755-1.053-5.617-11.936-15.798-29.138-30.543-43.532-14.394-14.745-33.702-26.681-51.255-33.001 1.053 0.351 2.457 1.053 1.755 1.756-15.447-5.968-30.192-9.479-44.234-10.883-37.915-5.968-77.585 2.106-108.128 21.766 0.351 0.702 0.351 1.053-0.702 1.755-11.234 7.021-27.032 19.309-39.671 35.458-12.638 16.149-22.468 36.511-26.681 54.766 0.351-1.053 0.702-2.809 1.405-2.107-9.128 36.16-6.67 67.053 5.968 93.735 0.702-0.702-1.755-4.213 0.351-3.862 1.404 3.862 3.16 8.075 5.266 11.936 2.457 5.617 5.266 12.989 9.128 14.745-9.83-19.309-16.5-41.426-17.203-61.085 1.404 2.809 1.053 8.777 3.16 11.234 0.702-13.34-2.457-31.245 2.106-43.883-1.053 6.67-1.755 15.798-1.053 24.925 0 6.67 3.16 25.277 5.266 27.032-0.351-0.351-0.351-2.106 0-2.106 1.053 2.106-1.404 3.16 0.351 3.511 0-0.702 0.351-0.702 0.702-0.703 3.511 7.723 8.075 19.66 11.585 25.628 4.213 7.723 9.83 14.745 16.149 21.064 0 0.351 0.351 0.351 0.352 0.702 0.702 1.755 3.16 3.862 3.861 5.266 0.351 0.702-0.351 1.755 0 2.458 5.266 9.83 12.989 19.66 22.468 27.383 5.968 7.021 15.447 14.394 27.032 20.713 11.234 5.968 24.223 10.883 36.16 13.691 8.426 2.106 18.606 2.457 24.926 3.862 8.426 1.755 23.17-0.702 30.542-2.107 44.234-6.67 88.117-36.862 110.235-80.393 22.819-43.883 22.117-97.596 2.457-138.671" fill="#000000" fill-rule="nonzero" stroke="none" stroke-width="1" stroke-linecap="butt" stroke-linejoin="miter" stroke-miterlimit="10" stroke-dasharray="" stroke-dashoffset="0" font-family="none" font-weight="none" font-size="none" text-anchor="none" style="mix-blend-mode: normal" data-fill-palette-color="tertiary"></path></g><g transform="matrix(1,0,0,1,80,162.0020744540196)"><svg viewBox="0 0 160 35.99585109196081" height="35.99585109196081" width="160"><g><svg viewBox="0 0 222.82344162301945 50.129496402877685" height="35.99585109196081" width="160"><g><rect width="2.0761100892086333" height="50.129496402877685" x="55.312488368343196" y="0" fill="#000000" opacity="1" stroke-width="0" stroke="transparent" fill-opacity="1" class="rect-o-0" data-fill-palette-color="primary" rx="1%" id="o-0" data-palette-color="#ef233c"></rect></g><g transform="matrix(1,0,0,1,62.823441623019455,0.12470023980814915)"><svg viewBox="0 0 160 49.880095923261386" height="49.880095923261386" width="160"><g id="textblocktransform"><svg viewBox="0 0 160 49.880095923261386" height="49.880095923261386" width="160" id="textblock"><g><svg viewBox="0 0 160 49.880095923261386" height="49.880095923261386" width="160"><g transform="matrix(1,0,0,1,0,0)"><svg width="160" viewBox="1.5000005960464478 -35.5 250.2000274658203 75" height="49.880095923261386" data-palette-color="#ef233c"><svg></svg><svg></svg><g class="wordmark-text-0" data-fill-palette-color="primary" id="text-0"><path xmlns="http://www.w3.org/2000/svg" d="M17.45 0h-2.6c-0.333 0-0.607-0.11-0.82-0.33-0.22-0.213-0.33-0.487-0.33-0.82v0-11.8l-12.05-20.4c-0.033-0.1-0.067-0.2-0.1-0.3-0.033-0.1-0.05-0.217-0.05-0.35v0c0-0.267 0.1-0.5 0.3-0.7 0.2-0.2 0.433-0.3 0.7-0.3v0h2.6c0.3 0 0.567 0.077 0.8 0.23 0.233 0.147 0.4 0.353 0.5 0.62v0l9.75 16.2 9.75-16.2c0.167-0.267 0.36-0.473 0.58-0.62 0.213-0.153 0.47-0.23 0.77-0.23v0h2.55c0.3 0 0.55 0.1 0.75 0.3 0.2 0.2 0.3 0.433 0.3 0.7v0c0 0.133-0.017 0.25-0.05 0.35-0.033 0.1-0.083 0.2-0.15 0.3v0l-12 20.4v11.8c0 0.333-0.11 0.607-0.33 0.82-0.213 0.22-0.503 0.33-0.87 0.33zM36.9 0h-2.55c-0.267 0-0.5-0.1-0.7-0.3-0.2-0.2-0.3-0.433-0.3-0.7v0c0-0.167 0.017-0.35 0.05-0.55v0l12.4-32.35c0.133-0.333 0.317-0.6 0.55-0.8 0.233-0.2 0.583-0.3 1.05-0.3v0h3.4c0.467 0 0.817 0.1 1.05 0.3 0.233 0.2 0.417 0.467 0.55 0.8v0l12.35 32.35c0.067 0.2 0.1 0.383 0.1 0.55v0c0 0.267-0.1 0.5-0.3 0.7-0.2 0.2-0.433 0.3-0.7 0.3v0h-2.55c-0.4 0-0.69-0.1-0.87-0.3-0.187-0.2-0.313-0.383-0.38-0.55v0l-2.75-7.1h-16.4l-2.75 7.1c-0.033 0.167-0.15 0.35-0.35 0.55-0.2 0.2-0.5 0.3-0.9 0.3zM49.1-30l-6.75 17.75h13.5zM81.6 0h-2.6c-0.333 0-0.61-0.11-0.83-0.33-0.213-0.213-0.32-0.487-0.32-0.82v0-29.4h-9.6c-0.333 0-0.61-0.11-0.83-0.33-0.213-0.213-0.32-0.487-0.32-0.82v0-2.1c0-0.367 0.107-0.66 0.32-0.88 0.22-0.213 0.497-0.32 0.83-0.32v0h24.1c0.367 0 0.657 0.107 0.87 0.32 0.22 0.22 0.33 0.513 0.33 0.88v0 2.1c0 0.333-0.11 0.607-0.33 0.82-0.213 0.22-0.503 0.33-0.87 0.33v0h-9.55v29.4c0 0.333-0.11 0.607-0.33 0.82-0.213 0.22-0.503 0.33-0.87 0.33zM110.4 0.5v0c-2.9 0-5.333-0.45-7.3-1.35-1.967-0.9-3.473-2.06-4.52-3.48-1.053-1.413-1.613-2.903-1.68-4.47v0c0-0.267 0.107-0.51 0.32-0.73 0.22-0.213 0.48-0.32 0.78-0.32v0h2.55c0.4 0 0.7 0.1 0.9 0.3 0.2 0.2 0.333 0.433 0.4 0.7v0c0.2 0.8 0.617 1.59 1.25 2.37 0.633 0.787 1.543 1.437 2.73 1.95 1.18 0.52 2.703 0.78 4.57 0.78v0c2.867 0 4.973-0.51 6.32-1.53 1.353-1.013 2.03-2.37 2.03-4.07v0c0-1.167-0.36-2.11-1.08-2.83-0.713-0.713-1.803-1.353-3.27-1.92-1.467-0.567-3.367-1.183-5.7-1.85v0c-2.433-0.7-4.45-1.467-6.05-2.3-1.6-0.833-2.79-1.867-3.57-3.1-0.787-1.233-1.18-2.8-1.18-4.7v0c0-1.8 0.483-3.41 1.45-4.83 0.967-1.413 2.367-2.537 4.2-3.37 1.833-0.833 4.033-1.25 6.6-1.25v0c2.067 0 3.877 0.273 5.43 0.82 1.547 0.553 2.837 1.287 3.87 2.2 1.033 0.92 1.817 1.903 2.35 2.95 0.533 1.053 0.817 2.08 0.85 3.08v0c0 0.233-0.083 0.457-0.25 0.67-0.167 0.22-0.433 0.33-0.8 0.33v0h-2.65c-0.233 0-0.477-0.067-0.73-0.2-0.247-0.133-0.437-0.383-0.57-0.75v0c-0.2-1.367-0.967-2.517-2.3-3.45-1.333-0.933-3.067-1.4-5.2-1.4v0c-2.167 0-3.923 0.417-5.27 1.25-1.353 0.833-2.03 2.133-2.03 3.9v0c0 1.133 0.317 2.073 0.95 2.82 0.633 0.753 1.633 1.413 3 1.98 1.367 0.567 3.15 1.167 5.35 1.8v0c2.667 0.733 4.85 1.507 6.55 2.32 1.7 0.82 2.957 1.837 3.77 3.05 0.82 1.22 1.23 2.78 1.23 4.68v0c0 2.1-0.55 3.89-1.65 5.37-1.1 1.487-2.643 2.62-4.63 3.4-1.98 0.787-4.32 1.18-7.02 1.18zM143.45 0.5v0c-2.8 0-5.21-0.5-7.23-1.5-2.013-1-3.56-2.527-4.64-4.58-1.087-2.047-1.63-4.687-1.63-7.92v0-20.3c0-0.367 0.1-0.66 0.3-0.88 0.2-0.213 0.483-0.32 0.85-0.32v0h2.55c0.367 0 0.66 0.107 0.88 0.32 0.213 0.22 0.32 0.513 0.32 0.88v0 20.4c0 3.267 0.767 5.683 2.3 7.25 1.533 1.567 3.633 2.35 6.3 2.35v0c2.633 0 4.727-0.783 6.28-2.35 1.547-1.567 2.32-3.983 2.32-7.25v0-20.4c0-0.367 0.11-0.66 0.33-0.88 0.213-0.213 0.487-0.32 0.82-0.32v0h2.6c0.333 0 0.61 0.107 0.83 0.32 0.213 0.22 0.32 0.513 0.32 0.88v0 20.3c0 3.233-0.54 5.873-1.62 7.92-1.087 2.053-2.63 3.58-4.63 4.58-2 1-4.417 1.5-7.25 1.5zM168.95 0h-2.5c-0.367 0-0.65-0.11-0.85-0.33-0.2-0.213-0.3-0.487-0.3-0.82v0-32.65c0-0.367 0.1-0.66 0.3-0.88 0.2-0.213 0.483-0.32 0.85-0.32v0h2.5c0.367 0 0.66 0.107 0.88 0.32 0.213 0.22 0.32 0.513 0.32 0.88v0 12.4l13.35-12.8c0.133-0.133 0.36-0.3 0.68-0.5 0.313-0.2 0.737-0.3 1.27-0.3v0h2.7c0.267 0 0.5 0.1 0.7 0.3 0.2 0.2 0.3 0.433 0.3 0.7v0c0 0.267-0.067 0.483-0.2 0.65v0l-15.45 15.1 16.45 16.55c0.167 0.2 0.25 0.433 0.25 0.7v0c0 0.267-0.1 0.5-0.3 0.7-0.2 0.2-0.433 0.3-0.7 0.3v0h-2.8c-0.567 0-1-0.11-1.3-0.33-0.3-0.213-0.517-0.387-0.65-0.52v0l-14.3-14.05v13.75c0 0.333-0.107 0.607-0.32 0.82-0.22 0.22-0.513 0.33-0.88 0.33zM217.55 0h-21.05c-0.367 0-0.65-0.11-0.85-0.33-0.2-0.213-0.3-0.487-0.3-0.82v0-32.65c0-0.367 0.1-0.66 0.3-0.88 0.2-0.213 0.483-0.32 0.85-0.32v0h20.65c0.367 0 0.65 0.107 0.85 0.32 0.2 0.22 0.3 0.513 0.3 0.88v0 1.9c0 0.367-0.1 0.65-0.3 0.85-0.2 0.2-0.483 0.3-0.85 0.3v0h-17v10.95h15.9c0.367 0 0.65 0.107 0.85 0.32 0.2 0.22 0.3 0.513 0.3 0.88v0 1.85c0 0.333-0.1 0.607-0.3 0.82-0.2 0.22-0.483 0.33-0.85 0.33v0h-15.9v11.35h17.4c0.367 0 0.65 0.1 0.85 0.3 0.2 0.2 0.3 0.483 0.3 0.85v0 1.95c0 0.333-0.1 0.607-0.3 0.82-0.2 0.22-0.483 0.33-0.85 0.33zM229.2 0h-2.4c-0.367 0-0.65-0.11-0.85-0.33-0.2-0.213-0.3-0.487-0.3-0.82v0-32.65c0-0.367 0.1-0.66 0.3-0.88 0.2-0.213 0.483-0.32 0.85-0.32v0h2.3c0.4 0 0.7 0.09 0.9 0.27 0.2 0.187 0.317 0.33 0.35 0.43v0l16.6 25.5v-25c0-0.367 0.1-0.66 0.3-0.88 0.2-0.213 0.483-0.32 0.85-0.32v0h2.4c0.367 0 0.66 0.107 0.88 0.32 0.213 0.22 0.32 0.513 0.32 0.88v0 32.6c0 0.333-0.107 0.617-0.32 0.85-0.22 0.233-0.497 0.35-0.83 0.35v0h-2.4c-0.367 0-0.64-0.1-0.82-0.3-0.187-0.2-0.313-0.333-0.38-0.4v0l-16.55-25.25v24.8c0 0.333-0.107 0.607-0.32 0.82-0.22 0.22-0.513 0.33-0.88 0.33z" fill="#000000" fill-rule="nonzero" stroke="none" stroke-width="1" stroke-linecap="butt" stroke-linejoin="miter" stroke-miterlimit="10" stroke-dasharray="" stroke-dashoffset="0" font-family="none" font-weight="none" font-size="none" text-anchor="none" style="mix-blend-mode: normal" data-fill-palette-color="primary" opacity="1"></path><path xmlns="http://www.w3.org/2000/svg" d="M17.1 39.5v0c-2.967 0-5.473-0.55-7.52-1.65-2.053-1.1-3.62-2.65-4.7-4.65-1.087-2-1.697-4.35-1.83-7.05v0c-0.033-1.467-0.05-3.027-0.05-4.68 0-1.647 0.017-3.22 0.05-4.72v0c0.133-2.7 0.743-5.043 1.83-7.03 1.08-1.98 2.653-3.513 4.72-4.6 2.067-1.08 4.567-1.62 7.5-1.62v0c2.333 0 4.367 0.333 6.1 1 1.733 0.667 3.16 1.507 4.28 2.52 1.113 1.02 1.947 2.08 2.5 3.18 0.547 1.1 0.837 2.067 0.87 2.9v0c0.033 0.3-0.05 0.54-0.25 0.72-0.2 0.187-0.467 0.28-0.8 0.28v0h-2.95c-0.333 0-0.573-0.067-0.72-0.2-0.153-0.133-0.297-0.367-0.43-0.7v0c-0.3-0.867-0.79-1.717-1.47-2.55-0.687-0.833-1.603-1.527-2.75-2.08-1.153-0.547-2.613-0.82-4.38-0.82v0c-2.667 0-4.807 0.717-6.42 2.15-1.62 1.433-2.497 3.8-2.63 7.1v0c-0.1 2.967-0.1 5.933 0 8.9v0c0.133 3.333 1.017 5.723 2.65 7.17 1.633 1.453 3.767 2.18 6.4 2.18v0c1.767 0 3.343-0.333 4.73-1 1.38-0.667 2.47-1.677 3.27-3.03 0.8-1.347 1.2-3.07 1.2-5.17v0-2.1h-7.5c-0.333 0-0.607-0.11-0.82-0.33-0.22-0.213-0.33-0.503-0.33-0.87v0-1.6c0-0.367 0.11-0.66 0.33-0.88 0.213-0.213 0.487-0.32 0.82-0.32v0h11.3c0.367 0 0.65 0.107 0.85 0.32 0.2 0.22 0.3 0.513 0.3 0.88v0 4.8c0 2.733-0.557 5.117-1.67 7.15-1.12 2.033-2.747 3.607-4.88 4.72-2.133 1.12-4.667 1.68-7.6 1.68zM38.6 39h-2.55c-0.267 0-0.5-0.1-0.7-0.3-0.2-0.2-0.3-0.433-0.3-0.7v0c0-0.167 0.017-0.35 0.05-0.55v0l12.4-32.35c0.133-0.333 0.317-0.6 0.55-0.8 0.233-0.2 0.583-0.3 1.05-0.3v0h3.4c0.467 0 0.817 0.1 1.05 0.3 0.233 0.2 0.417 0.467 0.55 0.8v0l12.35 32.35c0.067 0.2 0.1 0.383 0.1 0.55v0c0 0.267-0.1 0.5-0.3 0.7-0.2 0.2-0.433 0.3-0.7 0.3v0h-2.55c-0.4 0-0.69-0.1-0.87-0.3-0.187-0.2-0.313-0.383-0.38-0.55v0l-2.75-7.1h-16.4l-2.75 7.1c-0.033 0.167-0.15 0.35-0.35 0.55-0.2 0.2-0.5 0.3-0.9 0.3zM50.8 9l-6.75 17.75h13.5zM93.45 39h-20.4c-0.367 0-0.65-0.11-0.85-0.33-0.2-0.213-0.3-0.487-0.3-0.82v0-32.7c0-0.333 0.1-0.61 0.3-0.83 0.2-0.213 0.483-0.32 0.85-0.32v0h2.65c0.333 0 0.61 0.107 0.83 0.32 0.213 0.22 0.32 0.497 0.32 0.83v0 29.5h16.6c0.367 0 0.66 0.107 0.88 0.32 0.213 0.22 0.32 0.513 0.32 0.88v0 2c0 0.333-0.107 0.607-0.32 0.82-0.22 0.22-0.513 0.33-0.88 0.33zM121.6 39h-20.4c-0.367 0-0.65-0.11-0.85-0.33-0.2-0.213-0.3-0.487-0.3-0.82v0-32.7c0-0.333 0.1-0.61 0.3-0.83 0.2-0.213 0.483-0.32 0.85-0.32v0h2.65c0.333 0 0.61 0.107 0.83 0.32 0.213 0.22 0.32 0.497 0.32 0.83v0 29.5h16.6c0.367 0 0.66 0.107 0.88 0.32 0.213 0.22 0.32 0.513 0.32 0.88v0 2c0 0.333-0.107 0.607-0.32 0.82-0.22 0.22-0.513 0.33-0.88 0.33zM150.4 39h-21.05c-0.367 0-0.65-0.11-0.85-0.33-0.2-0.213-0.3-0.487-0.3-0.82v0-32.65c0-0.367 0.1-0.66 0.3-0.88 0.2-0.213 0.483-0.32 0.85-0.32v0h20.65c0.367 0 0.65 0.107 0.85 0.32 0.2 0.22 0.3 0.513 0.3 0.88v0 1.9c0 0.367-0.1 0.65-0.3 0.85-0.2 0.2-0.483 0.3-0.85 0.3v0h-17v10.95h15.9c0.367 0 0.65 0.107 0.85 0.32 0.2 0.22 0.3 0.513 0.3 0.88v0 1.85c0 0.333-0.1 0.607-0.3 0.82-0.2 0.22-0.483 0.33-0.85 0.33v0h-15.9v11.35h17.4c0.367 0 0.65 0.1 0.85 0.3 0.2 0.2 0.3 0.483 0.3 0.85v0 1.95c0 0.333-0.1 0.607-0.3 0.82-0.2 0.22-0.483 0.33-0.85 0.33zM162.2 39h-2.55c-0.367 0-0.65-0.11-0.85-0.33-0.2-0.213-0.3-0.487-0.3-0.82v0-32.65c0-0.367 0.1-0.66 0.3-0.88 0.2-0.213 0.483-0.32 0.85-0.32v0h12.2c3.767 0 6.75 0.883 8.95 2.65 2.2 1.767 3.3 4.383 3.3 7.85v0c0 2.567-0.64 4.657-1.92 6.27-1.287 1.62-3.03 2.747-5.23 3.38v0l7.7 13.3c0.1 0.2 0.15 0.383 0.15 0.55v0c0 0.267-0.107 0.5-0.32 0.7-0.22 0.2-0.463 0.3-0.73 0.3v0h-2.4c-0.567 0-0.983-0.15-1.25-0.45-0.267-0.3-0.5-0.6-0.7-0.9v0l-7.25-12.7h-8.75v12.9c0 0.333-0.107 0.607-0.32 0.82-0.22 0.22-0.513 0.33-0.88 0.33zM163.4 8.2v12.5h8.25c2.5 0 4.367-0.527 5.6-1.58 1.233-1.047 1.85-2.603 1.85-4.67v0c0-2.033-0.607-3.583-1.82-4.65-1.22-1.067-3.097-1.6-5.63-1.6v0zM204.35 39h-2.6c-0.333 0-0.607-0.11-0.82-0.33-0.22-0.213-0.33-0.487-0.33-0.82v0-11.8l-12.05-20.4c-0.033-0.1-0.067-0.2-0.1-0.3-0.033-0.1-0.05-0.217-0.05-0.35v0c0-0.267 0.1-0.5 0.3-0.7 0.2-0.2 0.433-0.3 0.7-0.3v0h2.6c0.3 0 0.567 0.077 0.8 0.23 0.233 0.147 0.4 0.353 0.5 0.62v0l9.75 16.2 9.75-16.2c0.167-0.267 0.36-0.473 0.58-0.62 0.213-0.153 0.47-0.23 0.77-0.23v0h2.55c0.3 0 0.55 0.1 0.75 0.3 0.2 0.2 0.3 0.433 0.3 0.7v0c0 0.133-0.017 0.25-0.05 0.35-0.033 0.1-0.083 0.2-0.15 0.3v0l-12 20.4v11.8c0 0.333-0.107 0.607-0.32 0.82-0.22 0.22-0.513 0.33-0.88 0.33z" fill="#000000" fill-rule="nonzero" stroke="none" stroke-width="1" stroke-linecap="butt" stroke-linejoin="miter" stroke-miterlimit="10" stroke-dasharray="" stroke-dashoffset="0" font-family="none" font-weight="none" font-size="none" text-anchor="none" style="mix-blend-mode: normal" data-fill-palette-color="primary" opacity="1"></path></g></svg></g></svg></g></svg></g></svg></g><g transform="matrix(1,0,0,1,0,0.1247002398081527)"><svg viewBox="0 0 49.87764520287557 49.88009592326138" height="49.88009592326138" width="49.87764520287557"><g><svg xmlns="http://www.w3.org/2000/svg" xmlns:xlink="http://www.w3.org/1999/xlink" version="1.1" x="0" y="0" viewBox="0.3583327531814575 0.3587183356285095 89.28327178955078 89.28765869140625" enable-background="new 0 0 90 90" xml:space="preserve" height="49.88009592326138" width="49.87764520287557" class="icon-icon-0" data-fill-palette-color="accent" id="icon-0"><polygon points="57.928,58.169 57.875,76.027 45.397,63.548 45.397,45.639 " fill="#000000" data-fill-palette-color="accent"></polygon><polygon points="76.027,57.875 58.475,57.927 45.826,45.279 63.432,45.279 " fill="#000000" data-fill-palette-color="accent"></polygon><polygon points="76.027,32.125 63.432,44.721 45.707,44.721 58.355,32.073 " fill="#000000" data-fill-palette-color="accent"></polygon><polygon points="44.838,45.59 44.838,63.314 32.125,76.027 32.074,58.355 " fill="#000000" data-fill-palette-color="accent"></polygon><polygon points="57.928,31.712 45.397,44.243 45.397,26.452 57.875,13.974 " fill="#000000" data-fill-palette-color="accent"></polygon><polygon points="44.838,26.687 44.838,44.291 32.074,31.526 32.125,13.974 " fill="#000000" data-fill-palette-color="accent"></polygon><polygon points="44.479,44.721 26.569,44.721 13.974,32.125 31.832,32.073 " fill="#000000" data-fill-palette-color="accent"></polygon><polygon points="44.36,45.279 31.712,57.927 13.974,57.875 26.569,45.279 " fill="#000000" data-fill-palette-color="accent"></polygon><rect x="58.48" y="58.48" width="18.049" height="18.049" fill="#000000" data-fill-palette-color="accent"></rect><polygon points="76.527,13.474 76.527,31.516 58.914,31.516 58.912,31.518 58.484,31.516 58.484,13.474 " fill="#000000" data-fill-palette-color="accent"></polygon><polygon points="31.518,30.971 31.516,31.516 13.474,31.516 13.474,13.474 31.516,13.474 31.516,30.968 " fill="#000000" data-fill-palette-color="accent"></polygon><rect x="13.471" y="58.48" width="18.05" height="18.049" fill="#000000" data-fill-palette-color="accent"></rect><rect x="67.864" y="35.981" transform="matrix(0.7071 -0.7071 0.7071 0.7071 -9.3022 67.5465)" width="18.042" height="18.042" fill="#000000" data-fill-palette-color="accent"></rect><rect x="35.979" y="4.094" transform="matrix(0.7071 -0.7071 0.7071 0.7071 3.9068 35.6621)" width="18.042" height="18.042" fill="#000000" data-fill-palette-color="accent"></rect><rect x="4.095" y="35.98" transform="matrix(0.7071 -0.7071 0.7071 0.7071 -27.9787 22.4536)" width="18.041" height="18.041" fill="#000000" data-fill-palette-color="accent"></rect><rect x="35.98" y="67.865" transform="matrix(0.7071 -0.7071 0.7071 0.7071 -41.1877 54.3437)" width="18.04" height="18.041" fill="#000000" data-fill-palette-color="accent"></rect></svg></g></svg></g></svg></g></svg></g></svg></g><defs></defs></svg><rect width="320" height="360" fill="none" stroke="none" visibility="hidden"></rect></g></svg></g></svg>