<svg xmlns="http://www.w3.org/2000/svg" version="1.1" xmlns:xlink="http://www.w3.org/1999/xlink" xmlns:svgjs="http://svgjs.dev/svgjs" width="1000" height="1000" viewBox="0 0 1000 1000"><rect width="1000" height="1000" fill="#000000"></rect><g transform="matrix(0.7,0,0,0.7,150.0000000000001,106.25)"><svg viewBox="0 0 320 360" data-background-color="#ffffff" preserveAspectRatio="xMidYMid meet" height="1125" width="1000" xmlns="http://www.w3.org/2000/svg" xmlns:xlink="http://www.w3.org/1999/xlink"><g id="tight-bounds" transform="matrix(1,0,0,1,0,0)"><svg viewBox="0 0 320 360" height="360" width="320"><g><svg></svg></g><g><svg viewBox="0 0 320 360" height="360" width="320"><g><path xmlns="http://www.w3.org/2000/svg" d="M20.961 227.22l3.726 4.658-1.863-6.056c-0.466-2.795-3.726 0.466-1.863 1.398M25.153 224.425c1.397 2.329 2.795 4.658 2.795 6.987 0 3.261 2.795 4.658 5.123 5.589-3.261-3.726-5.124-13.974-7.918-12.576M204.017 26.929c7.918 0 15.371-0.932 23.756 0.931 20.495 5.124 37.729 15.371 49.374 29.811l32.606 52.169c1.397 13.042 4.192 27.482 3.726 43.319 3.261 0 2.795-4.658 6.521-5.59-3.726 9.316-5.59 20.961-6.521 34.469-2.329-7.453 0-18.632 0.466-24.687-3.261 5.124-5.124 1.397-5.124-0.932 0.466-3.726-1.397-3.261-2.795-4.658-5.124-4.658-8.384-9.782-12.11-17.7 2.329-6.055 2.795-14.905-4.658-19.563-2.329-1.397-5.124-3.726-6.521-7.453-1.863-5.124-5.124-11.179-4.193-19.097 0.466-2.329-6.987 5.124-11.179 1.863-18.166-12.576-36.332-27.016-58.224-39.127-11.645 0-20.029-4.192-24.221-9.316-3.726-4.658-0.932-10.713 4.658-11.179 3.261 0 6.987-0.932 9.782 0.932 0.466-1.863 2.329-4.192 4.657-4.192M157.904 16.215l0.932 0.466c4.658 0.932 6.987 7.453 12.11 5.124 0 3.261 0.466 6.521-0.466 8.85-1.397 3.726-5.59 3.726-8.85 3.726-31.208-1.863-49.374 11.179-68.471 22.358-5.124 3.261-10.713 5.59-14.906 9.782-20.029 18.632-41.921 35.866-47.045 70.335l-4.192 38.195c-0.466 4.192-5.124 8.384-4.192 13.508l3.26 22.824c-3.261-3.261-5.124 0.932-4.192 2.795 0.466 1.397 2.329 6.055 5.124 1.863 3.726 6.987 7.453 20.495 12.576 26.55 15.837 18.632 36.332 35.4 53.101 52.169 4.192-0.932 7.453-0.932 8.384-3.727 1.397 2.795-1.397 5.59-3.726 6.056 7.453 4.658 15.837 8.85 27.016 9.781 14.44 0.932 27.948 3.261 40.524 6.522 6.521-1.863 13.042-2.795 20.029-3.261 2.329 0 3.726-3.726 6.521-4.658l0.466-4.658c2.795 4.192 2.329-1.397 0.466-4.192 3.261 2.795 4.192 5.124 5.589 6.987 0-1.397 3.726-6.521 3.727-0.466l0.931-6.055c1.397-0.932 1.863 5.124 3.261 0.931 1.397-4.192 4.192-0.932 6.987-2.329-0.932 1.863-0.466 5.59 2.794 3.261l3.727-3.261c2.329 5.59 6.055 3.261 7.918 2.329 20.495-13.042 40.99-28.413 60.553-43.784l-0.466 6.055 2.329-7.453c2.329 2.329 4.192 0.466 5.124-0.931 2.795-4.658 6.521-9.316 12.577-13.508-7.453 20.029-16.303 35.866-27.482 48.908l-4.658 5.59c0 3.261-0.932 7.453-4.658 7.918-1.863 0.466-5.59-0.932-8.384 1.863-1.397 1.863 3.261 5.59-0.466 2.795-3.261-2.329-6.521 0-10.248 0.932-2.795 0.932 1.863 3.726 2.795 5.589 0.932 1.863 1.863 3.726 1.398 6.056l-5.124-5.59c-6.055 3.261-9.782 9.316-14.906 13.974-2.329 1.863-1.397 5.124-1.397 7.918-3.261 0-6.987-0.932-8.85 0.932-1.397 1.863-0.932 4.658-0.932 7.453-4.658-0.466-5.124-7.453-9.315-6.056-4.192 0.932-8.85 1.397-12.577 3.727 2.795 5.59-4.658 2.329-3.726 3.26-6.987-4.192-13.042-7.453-20.495-4.658-15.837-5.124-35.4-2.795-49.84-0.931 0-2.329 0.466-4.658-0.466-5.124-0.932 2.329-3.726 1.397-3.26 1.397-8.85-6.055-17.7-9.782-27.016-14.905-8.384 0.932-16.303-3.261-18.632-5.59-6.521-6.055-13.974-2.795-20.029-4.192-13.042-3.261-17.7-16.769-19.098-26.084-0.932-4.658-4.658-6.521-6.055-6.056-6.055-19.563-15.371-37.263-22.824-55.429-1.863-4.658-1.397-9.316-1.397-14.44 2.329 0.932 4.658 0.466 4.192-2.794-2.329-15.371-7.918-27.016-13.974-38.195 3.261-15.837 3.726-34.469 11.179-48.443 6.521-12.576 18.632-19.098 27.016-29.811 2.795-3.726 2.795-8.85 5.59-12.11 9.316-9.316 18.632-19.098 28.879-27.482 4.658-3.726 10.247 0 17.234-1.397 2.329-8.384 11.645-15.837 20.495-13.508 3.726 0.932 11.179-8.85 13.508-9.782 3.726-1.397 1.863 3.726 1.863 6.987 8.85-6.987 20.961-10.713 32.14-14.906" fill="#ffffff" fill-rule="nonzero" stroke="none" stroke-width="1" stroke-linecap="butt" stroke-linejoin="miter" stroke-miterlimit="10" stroke-dasharray="" stroke-dashoffset="0" font-family="none" font-weight="none" font-size="none" text-anchor="none" style="mix-blend-mode: normal" data-fill-palette-color="tertiary"></path></g><g transform="matrix(1,0,0,1,64,166.5858842188739)"><svg viewBox="0 0 192 26.828231562252178" height="26.828231562252178" width="192"><g><svg viewBox="0 0 192 26.828231562252178" height="26.828231562252178" width="192"><g><svg viewBox="0 0 192.00000000000003 26.82823156225218" height="26.828231562252178" width="192"><g><svg viewBox="0 0 192.00000000000003 26.82823156225218" height="26.82823156225218" width="192.00000000000003"><g id="textblocktransform"><svg viewBox="0 0 192.00000000000003 26.82823156225218" height="26.82823156225218" width="192.00000000000003" id="textblock"><g><svg viewBox="0 0 192.00000000000003 26.82823156225218" height="26.82823156225218" width="192.00000000000003"><g transform="matrix(1,0,0,1,0,0)"><svg width="192.00000000000003" viewBox="2.4000000953674316 -35.349998474121094 315.2200012207031 44.04999923706055" height="26.82823156225218" data-palette-color="#ef233c"><path d="M30.1-2.8L30.15-2.65Q26.1 0.4 19.7 0.4L19.7 0.4Q11.9 0.4 7.15-4.23 2.4-8.85 2.4-16.9L2.4-16.9Q2.4-24.55 7.13-29.43 11.85-34.3 19.05-34.3L19.05-34.3Q25-34.3 28.9-32L28.9-32 28.9-27.65Q24.8-30.35 19.4-30.35L19.4-30.35Q13.75-30.35 10.2-26.68 6.65-23 6.65-16.9L6.65-16.9Q6.65-10.65 10.15-7.08 13.65-3.5 19.8-3.5L19.8-3.5Q23.2-3.5 26.1-4.85L26.1-4.85 26.1-15.35 18.7-15.35 18.7-18.9 30.15-18.9 30.15-2.8 30.1-2.8ZM44.9-3.05L44.9-3.05Q47.6-3.05 49.2-4.58 50.8-6.1 50.8-8.45L50.8-8.45 50.8-11.7 46.4-11.7Q43.2-11.7 41.6-10.45 40-9.2 40-7.3 40-5.4 41.25-4.23 42.5-3.05 44.9-3.05ZM50.85 0L50.85-3Q48.9 0.25 43.75 0.25L43.75 0.25Q40.2 0.25 38.02-1.85 35.85-3.95 35.85-7.15L35.85-7.15Q35.85-10.8 38.62-12.83 41.4-14.85 46.2-14.85L46.2-14.85 50.8-14.85 50.8-16.15Q50.8-19.15 49.45-20.68 48.1-22.2 44.9-22.2L44.9-22.2Q40.85-22.2 37.7-20.05L37.7-20.05 37.7-24Q40.55-25.75 45.2-25.75L45.2-25.75Q54.75-25.75 54.75-16.05L54.75-16.05 54.75 0 50.85 0ZM65.9-35.35L65.9 0 61.95 0 61.95-35.35 65.9-35.35ZM77.54-35.35L77.54 0 73.59 0 73.59-35.35 77.54-35.35ZM103.54-5L103.54-1.3Q100.59 0.25 96.34 0.25L96.34 0.25Q90.59 0.25 87.07-3.28 83.54-6.8 83.54-12.6L83.54-12.6Q83.54-18.65 86.69-22.15 89.84-25.65 94.79-25.65L94.79-25.65Q99.54-25.65 102.34-22.6 105.14-19.55 105.14-13.95L105.14-13.95Q105.14-12.35 104.89-11L104.89-11 87.59-11Q88.04-7.25 90.44-5.25 92.84-3.25 96.74-3.25L96.74-3.25Q100.99-3.25 103.54-5L103.54-5ZM94.79-22.2L94.79-22.2Q91.94-22.2 89.94-20.15 87.94-18.1 87.59-14.3L87.59-14.3 101.19-14.3 101.19-15.3Q101.19-18.45 99.49-20.33 97.79-22.2 94.79-22.2ZM115.04-13.85L115.04 0 111.09 0 111.14-25.35 115.04-25.35 115.04-20.9Q117.04-25.6 121.94-25.6L121.94-25.6Q122.84-25.6 123.34-25.5L123.34-25.5 123.34-21.6Q122.29-21.95 121.19-21.95L121.19-21.95Q118.54-21.95 116.79-19.5 115.04-17.05 115.04-13.85L115.04-13.85ZM147.59-25.35L138.44-0.65Q136.49 4.5 133.81 6.6 131.14 8.7 127.69 8.7L127.69 8.7Q126.39 8.7 125.59 8.45L125.59 8.45 125.59 4.9Q126.34 5.1 127.29 5.1L127.29 5.1Q132.34 5.1 134.44-0.65L134.44-0.65 124.19-25.35 128.64-25.35 131.94-17 136.39-5.5Q136.79-6.8 140.39-17L140.39-17 143.34-25.35 147.59-25.35ZM185.13-10.65L185.13-10.65Q185.13-5.65 182.31-2.55 179.48 0.55 174.83 0.55L174.83 0.55Q169.23 0.55 166.23-3.7 163.23-7.95 163.23-14.8L163.23-14.8Q163.23-22.95 167.23-28.3 171.23-33.65 178.23-33.65L178.23-33.65Q180.48-33.65 182.83-32.9L182.83-32.9 182.83-29.05Q180.68-30 178.28-30L178.28-30Q173.58-30 170.78-26.48 167.98-22.95 167.33-17.6L167.33-17.6Q170.63-21.05 175.48-21.05L175.48-21.05Q179.98-21.05 182.56-18.2 185.13-15.35 185.13-10.65ZM174.83-3.1L174.83-3.1Q177.68-3.1 179.35-5.2 181.03-7.3 181.03-10.7L181.03-10.7Q181.03-13.8 179.35-15.65 177.68-17.5 174.98-17.5L174.98-17.5Q170.48-17.5 167.18-13.85L167.18-13.85Q167.38-8.55 169.48-5.83 171.58-3.1 174.83-3.1ZM211.98-16.45L211.98-16.45Q211.98-8.8 208.98-4.2 205.98 0.4 200.43 0.4L200.43 0.4Q195.28 0.4 192.18-4.2 189.08-8.8 189.08-16.45L189.08-16.45Q189.08-24.15 192.2-28.63 195.33-33.1 200.43-33.1L200.43-33.1Q205.73-33.1 208.85-28.63 211.98-24.15 211.98-16.45ZM195.28-25.98Q193.13-22.6 193.13-16.45 193.13-10.3 195.23-6.83 197.33-3.35 200.43-3.35L200.43-3.35Q203.88-3.35 205.9-6.75 207.93-10.15 207.93-16.45L207.93-16.45Q207.93-22.7 205.8-26.03 203.68-29.35 200.43-29.35L200.43-29.35Q197.43-29.35 195.28-25.98ZM234.22-14.2L234.22 0 230.17 0 230.17-33.7 235.27-33.7 243.72-19.5 252.27-4.9Q252.07-9.75 252.07-19.45L252.07-19.45 252.07-33.7 256.12-33.7 256.12 0 251.02 0 242.57-14.1Q240.02-18.35 237.87-22.03 235.72-25.7 234.82-27.3L234.82-27.3 233.97-28.85Q234.22-23.65 234.22-14.2L234.22-14.2ZM276.77-12.55L276.77 0 272.72 0 272.72-12.5 261.27-33.7 265.97-33.7 268.52-28.75Q271.12-23.75 272.67-20.6 274.22-17.45 274.47-16.8L274.47-16.8 274.72-16.2Q275.17-17.45 281.07-28.75L281.07-28.75 283.62-33.7 288.32-33.7 276.77-12.55ZM317.62-5.95L317.62-1.7Q314.52 0.4 309.12 0.4L309.12 0.4Q301.52 0.4 296.77-4.28 292.02-8.95 292.02-17L292.02-17Q292.02-24.6 296.84-29.38 301.67-34.15 308.97-34.15L308.97-34.15Q314.22-34.15 317.52-32.35L317.52-32.35 317.52-28.2Q315.32-29.35 313.57-29.85 311.82-30.35 308.97-30.35L308.97-30.35Q303.52-30.35 299.89-26.65 296.27-22.95 296.27-17L296.27-17Q296.27-10.8 299.87-7.1 303.47-3.4 309.42-3.4L309.42-3.4Q314.22-3.4 317.62-5.95L317.62-5.95Z" opacity="1" transform="matrix(1,0,0,1,0,0)" fill="#ffffff" class="wordmark-text-0" data-fill-palette-color="primary" id="text-0"></path></svg></g></svg></g></svg></g></svg></g><g></g></svg></g></svg></g></svg></g></svg></g><defs></defs></svg><rect width="320" height="360" fill="none" stroke="none" visibility="hidden"></rect></g></svg></g></svg>